<?xml version="1.0" encoding="utf-8"?>
<!-- Generator: Adobe Illustrator 24.3.0, SVG Export Plug-In . SVG Version: 6.00 Build 0)  -->
<svg version="1.1" id="Ebene_1" xmlns="http://www.w3.org/2000/svg" xmlns:xlink="http://www.w3.org/1999/xlink" x="0px" y="0px"
	 width="1024px" height="1024px" viewBox="0 0 1024 1024" style="enable-background:new 0 0 1024 1024;" xml:space="preserve">
<style type="text/css">
	.st0{fill:#39516A;}
	.st1{fill:#FFFFFF;}
	.st2{fill:#2AE4D0;}
	.st3{display:none;fill:#2AE4D0;}
	.st4{display:none;fill:#FFFFFF;}
	.st5{display:none;}
	.st6{display:inline;fill:#FFFFFF;}
	.st7{fill:none;stroke:#2AE4D0;stroke-width:30;stroke-linecap:round;stroke-linejoin:round;stroke-miterlimit:10;}
</style>
<path class="st0" d="M30.5,0h964c16.6,0,30,13.4,30,30v964c0,16.6-13.4,30-30,30h-964c-16.6,0-30-13.4-30-30V30
	C0.5,13.4,13.9,0,30.5,0z"/>
<g>
	<path class="st1" d="M747.2,638.2c-31.5-25.4-68.4-45-109.8-58.4c-19.4-6.3-39.4-11-59.7-14.2c31.6-9.9,61-27,86-50.4
		c40.1-37.6,63.2-86.7,63.2-134.8c0-8.3-6.7-15-15-15s-15,6.7-15,15c0,39.8-19.6,81-53.6,112.9c-36,33.7-82.4,52.2-130.7,52.2
		s-94.7-18.5-130.7-52.2c-34.1-31.9-53.6-73-53.6-112.9c0-8.3-6.7-15-15-15s-15,6.7-15,15c0,48.1,23,97.2,63.2,134.8
		c25,23.4,54.4,40.5,86,50.4c-20.4,3.2-40.3,8-59.7,14.2c-41.4,13.4-78.3,33-109.8,58.4c-70.7,57-108,138.2-108,234.8
		c0,8.3,6.7,15,15,15s15-6.7,15-15c0-87.2,33.5-160.4,96.8-211.5c28.6-23.1,62.3-41,100.2-53.2c36.7-11.9,75.7-17.9,115.7-17.9
		s79,6,115.7,17.9c37.9,12.2,71.6,30.1,100.2,53.2c63.4,51.1,96.8,124.3,96.8,211.5c0,8.3,6.7,15,15,15s15-6.7,15-15
		C855.2,776.4,817.9,695.2,747.2,638.2z"/>
	<path class="st2" d="M482.2,148.5c0-3.5,3.4-6.7,8.9-9s13-3.7,21.4-3.7c8.4,0,15.9,1.4,21.4,3.7s8.9,5.4,8.9,9c0,3.5-3.4,6.7-8.9,9
		s-13,3.7-21.4,3.7c-8.4,0-15.9-1.4-21.4-3.7C485.6,155.1,482.2,152,482.2,148.5z"/>
	<path class="st2" d="M646.1,191.9c2.8-2.1,7.3-1.4,12.5,1.4c5.2,2.9,10.9,8,16.1,14.6c5.1,6.6,8.7,13.4,10.2,19.1
		c1.5,5.7,1.2,10.3-1.5,12.4c-2.8,2.1-7.3,1.4-12.5-1.4c-5.2-2.9-10.9-8-16.1-14.6c-5.1-6.6-8.7-13.4-10.2-19.1
		C643,198.7,643.4,194.1,646.1,191.9z"/>
	<path class="st2" d="M570,154.8c1.5-3.2,6-4.5,11.9-4.1s13.3,2.4,20.8,6.1c7.5,3.7,13.7,8.3,17.7,12.7s5.6,8.8,4.1,12
		s-6,4.5-11.9,4.1s-13.3-2.4-20.8-6.1c-7.5-3.7-13.7-8.3-17.7-12.7C570.2,162.2,568.5,157.9,570,154.8z"/>
	<path class="st2" d="M700.1,259.9c3.4-1.1,7.3,1.3,11.1,5.9s7.3,11.4,9.8,19.4c2.4,8,3.3,15.6,2.7,21.5s-2.6,10-6,11.1
		s-7.3-1.3-11.1-5.9s-7.3-11.4-9.8-19.4c-2.4-8-3.3-15.6-2.7-21.5C694.7,265,696.7,260.8,700.1,259.9z"/>
	<path class="st2" d="M491.1,184.7c5.6-3.5,13.2-5.4,21.4-5.4c8.2,0,15.8,1.9,21.4,5.4c5.6,3.5,8.9,8.2,8.9,13.1s-3.3,9.6-8.9,13.1
		c-5.6,3.5-13.2,5.4-21.4,5.4s-15.8-1.9-21.4-5.4s-8.9-8.2-8.9-13.1S485.5,188.2,491.1,184.7z"/>
	<path class="st2" d="M640,230.9c6.2,2.5,12.2,7.5,17,14.1s7.7,13.9,8.2,20.5s-1.4,12-5.4,14.9s-9.7,3-15.8,0.5
		c-6.2-2.5-12.2-7.5-17-14.1s-7.7-13.9-8.2-20.5s1.4-12,5.4-14.9C628.2,228.6,633.9,228.5,640,230.9z"/>
	<path class="st2" d="M572.5,188.6c6.6-0.6,14.3,1.2,21.5,4.9s13.2,8.9,16.6,14.6c3.4,5.7,4.1,11.3,1.9,15.7
		c-2.2,4.4-7.2,7-13.8,7.6s-14.3-1.2-21.5-4.9s-13.2-8.9-16.6-14.6c-3.4-5.7-4.1-11.3-1.9-15.7C560.9,191.7,566,189,572.5,188.6z"/>
	<path class="st2" d="M683,301.8c4.2,5.1,7.2,12.4,8.4,20.5s0.3,15.9-2.4,21.9c-2.7,6.1-6.9,9.9-11.8,10.6
		c-4.8,0.7-9.9-1.8-14.2-6.9c-4.2-5.1-7.2-12.4-8.4-20.5s-0.3-15.9,2.4-21.9c2.7-6.1,6.9-9.9,11.8-10.6
		C673.7,294.1,678.8,296.6,683,301.8z"/>
	<path class="st3" d="M491.1,241.6c5.8-4.7,13.4-7.1,21.4-7.1c7.9,0,15.6,2.4,21.4,7.1c5.8,4.7,8.9,10.9,8.9,17.3
		s-3.1,12.5-8.9,17.3c-5.8,4.7-13.4,7.1-21.4,7.1s-15.6-2.4-21.4-7.1s-8.9-10.9-8.9-17.3S485.3,246.4,491.1,241.6z"/>
	<path class="st2" d="M581.5,311.8c-7.3-1-14.4-4.9-19.8-10.8s-8.9-13.1-9.4-20.6c-0.5-7.4,1.9-13.9,6.6-18.2
		c4.6-4.3,11.3-6.3,18.6-5.3c7.3,1,14.4,4.9,19.8,10.8c5.4,5.8,8.9,13.1,9.4,20.6c0.5,7.4-1.9,13.9-6.6,18.2
		S588.8,312.8,581.5,311.8z"/>
	<path class="st4" d="M596.6,371.2c-5.1-5.4-8.1-12.9-8.6-20.8c-0.6-7.9,1.4-15.7,5.6-21.8c4.2-6.1,10.2-9.7,16.6-10
		c6.3-0.5,12.7,2.2,17.9,7.6c5.1,5.4,8.1,12.9,8.6,20.8s-1.4,15.7-5.6,21.8c-4.2,6.1-10.2,9.7-16.6,10
		C608,379.3,601.6,376.7,596.6,371.2z"/>
	<path class="st2" d="M378.4,191.9c-2.8-2.1-7.3-1.4-12.5,1.4s-10.9,8-16.1,14.6c-5.1,6.6-8.7,13.4-10.2,19.1
		c-1.5,5.7-1.2,10.3,1.5,12.4c2.8,2.1,7.3,1.4,12.5-1.4c5.2-2.9,10.9-8,16.1-14.6c5.1-6.6,8.7-13.4,10.2-19.1
		C381.5,198.7,381.2,194.1,378.4,191.9z"/>
	<path class="st2" d="M454.4,154.8c-1.5-3.2-6-4.5-11.9-4.1s-13.3,2.4-20.8,6.1c-7.5,3.7-13.7,8.3-17.7,12.7s-5.6,8.8-4.1,12
		s6,4.5,11.9,4.1s13.3-2.4,20.8-6.1c7.5-3.7,13.7-8.3,17.7-12.7C454.3,162.3,455.9,157.9,454.4,154.8z"/>
	<path class="st2" d="M324.3,259.9c-3.4-1.1-7.3,1.3-11.1,5.9c-3.8,4.5-7.3,11.4-9.8,19.4c-2.4,8-3.3,15.6-2.7,21.5
		c0.6,5.9,2.6,10,6,11.1s7.3-1.3,11.1-5.9c3.8-4.5,7.3-11.4,9.8-19.4c2.4-8,3.3-15.6,2.7-21.5S327.7,260.8,324.3,259.9z"/>
	<path class="st2" d="M384.4,230.9c-6.2,2.5-12.2,7.5-17,14.1s-7.7,13.9-8.2,20.5s1.4,12,5.4,14.9s9.7,3,15.8,0.5s12.2-7.5,17-14.1
		s7.7-13.9,8.2-20.5s-1.4-12-5.4-14.9C396.3,228.6,390.5,228.5,384.4,230.9z"/>
	<path class="st2" d="M451.9,188.6c-6.6-0.6-14.3,1.2-21.5,4.9c-7.2,3.8-13.2,8.9-16.6,14.6c-3.4,5.7-4.1,11.3-1.9,15.7
		s7.2,7,13.8,7.6s14.3-1.2,21.5-4.9s13.2-8.9,16.6-14.6c3.4-5.7,4.1-11.3,1.9-15.7C463.5,191.7,458.5,189,451.9,188.6z"/>
	<path class="st2" d="M341.4,301.8c-4.2,5.1-7.2,12.4-8.4,20.5c-1.2,8.1-0.3,15.9,2.4,21.9c2.7,6.1,6.9,9.9,11.8,10.6
		s9.9-1.8,14.2-6.9c4.2-5.1,7.2-12.4,8.4-20.5c1.2-8.1,0.3-15.9-2.4-21.9c-2.7-6.1-6.9-9.9-11.8-10.6
		C350.8,294.1,345.6,296.6,341.4,301.8z"/>
	<path class="st2" d="M442.9,311.8c7.3-1,14.4-4.9,19.8-10.8s8.9-13.1,9.4-20.6c0.5-7.4-1.9-13.9-6.6-18.2
		c-4.6-4.3-11.3-6.3-18.6-5.3c-7.3,1-14.4,4.9-19.8,10.8c-5.4,5.8-8.9,13.1-9.4,20.6c-0.5,7.4,1.9,13.9,6.6,18.2
		S435.6,312.8,442.9,311.8z"/>
	<path class="st4" d="M428,371.2c5.1-5.4,8.1-12.9,8.6-20.8c0.6-7.9-1.4-15.7-5.6-21.8c-4.2-6.1-10.2-9.7-16.6-10
		c-6.3-0.5-12.7,2.2-17.9,7.6c-5.1,5.4-8.1,12.9-8.6,20.8c-0.6,7.9,1.4,15.7,5.6,21.8c4.2,6.1,10.2,9.7,16.6,10
		C416.5,379.3,422.8,376.7,428,371.2z"/>
	<path class="st4" d="M538.5,334c7.1,7.1,10.7,16.6,10.7,26s-3.7,18.8-10.7,26c-7.1,7.1-16.6,10.7-26,10.7c-9.4,0-18.8-3.7-26-10.7
		c-7.1-7.1-10.7-16.6-10.7-26s3.7-18.8,10.7-26c7.1-7.1,16.6-10.7,26-10.7C521.9,323.3,531.3,326.9,538.5,334z"/>
</g>
<g class="st5">
	<path class="st6" d="M112.8,135.8V85.4h25.8v7.8h-15.9v12.7h14.1v7.7h-14.1V128h15.9v7.8H112.8z"/>
	<path class="st6" d="M147.2,135.8V85.4H173v7.8h-16v12.7h14.1v7.7H157V128h16v7.8H147.2z"/>
	<path class="st6" d="M209.3,135.1c-1.9,0.4-4,0.7-6.2,0.9s-4.3,0.4-6.2,0.4c-3,0-5.6-0.4-7.7-1.2c-2.1-0.8-3.9-2.1-5.2-4.1
		s-2.3-4.7-2.9-8.1c-0.6-3.4-0.9-7.8-0.9-13.2c0-5.3,0.4-9.6,1.2-12.9s2-5.8,3.6-7.6c1.6-1.8,3.5-3,5.8-3.6s4.9-0.9,7.9-0.9
		c1.2,0,2.7,0.1,4.4,0.4c1.7,0.2,3.3,0.5,4.8,0.9v8.5c-1.5-0.3-3.2-0.5-4.9-0.8c-1.8-0.2-3.4-0.3-4.9-0.3s-2.7,0.2-3.7,0.6
		s-1.8,1.3-2.4,2.5c-0.6,1.2-1,2.9-1.3,5.1c-0.2,2.2-0.4,5.1-0.4,8.6c0,3.6,0.1,6.5,0.3,8.8s0.6,4.1,1.1,5.4s1.2,2.2,2,2.6
		c0.8,0.5,1.9,0.7,3.1,0.7c0.5,0,1,0,1.5,0s1,0,1.5-0.1v-11.4h-4.6v-8.5h14.2v27.3H209.3z"/>
</g>
<path class="st7" d="M329.7,834.2h86.2L455.8,701l39.1,134.2c0-89,18.5-133.5,58.5-133.5c39.9,0,58.5,44.5,58.5,133.5h83.6"/>
</svg>
