<?xml version="1.0" encoding="utf-8"?>
<!-- Generator: Adobe Illustrator 25.0.0, SVG Export Plug-In . SVG Version: 6.00 Build 0)  -->
<svg version="1.1" xmlns="http://www.w3.org/2000/svg" xmlns:xlink="http://www.w3.org/1999/xlink" x="0px" y="0px" width="1024px"
	 height="1024px" viewBox="0 0 1024 1024" style="enable-background:new 0 0 1024 1024;" xml:space="preserve">
<style type="text/css">
	.st0{fill:#39516A;}
	.st1{display:none;}
	.st2{display:inline;fill:#2AE4D0;}
	.st3{fill:none;stroke:#FFFFFF;stroke-width:30;stroke-miterlimit:10;}
	.st4{fill:none;stroke:#FFFFFF;stroke-width:30;stroke-linecap:round;stroke-miterlimit:10;}
	.st5{display:none;fill:none;stroke:#D0D0D0;stroke-width:30;stroke-linecap:round;stroke-miterlimit:10;}
	.st6{fill:none;}
	.st7{display:none;fill:#FFFFFF;}
	.st8{font-family:'Share-Bold';}
	.st9{font-size:72px;}
	.st10{display:inline;fill:#FFFFFF;}
	.st11{display:inline;}
	.st12{fill:#2AE4D0;}
	.st13{fill:none;stroke:#FFFFFF;stroke-width:15;stroke-linecap:round;stroke-miterlimit:10;}
	.st14{fill:#FFFFFF;}
	.st15{display:inline;fill:#39516A;}
	.st16{display:inline;fill:none;stroke:#FFFFFF;stroke-width:15;stroke-linecap:round;stroke-miterlimit:10;}
	.st17{fill:none;stroke:#FFFFFF;stroke-width:20;stroke-linecap:round;stroke-miterlimit:10;}
	.st18{display:inline;fill:none;stroke:#FFFFFF;stroke-width:10;stroke-linecap:round;stroke-miterlimit:10;}
	.st19{fill:none;stroke:#FFFFFF;stroke-width:15;stroke-linecap:round;stroke-linejoin:round;stroke-miterlimit:10;}
	.st20{fill:none;stroke:#FFFFFF;stroke-width:15;stroke-miterlimit:10;}
	
		.st21{display:inline;fill:#FFFFFF;stroke:#FFFFFF;stroke-width:15;stroke-linecap:round;stroke-linejoin:round;stroke-miterlimit:10;}
	.st22{fill:none;stroke:#2AE4D0;stroke-width:10;stroke-linecap:round;stroke-miterlimit:10;}
</style>
<g id="Ebene_1">
	<path class="st0" d="M30,0h964c16.6,0,30,13.4,30,30v964c0,16.6-13.4,30-30,30H30c-16.6,0-30-13.4-30-30V30C0,13.4,13.4,0,30,0z"/>
	<g>
		<g class="st1">
			<path class="st2" d="M481.7,148.5c0-3.5,3.4-6.7,8.9-9s13-3.7,21.4-3.7c8.4,0,15.9,1.4,21.4,3.7s8.9,5.4,8.9,9
				c0,3.5-3.4,6.7-8.9,9s-13,3.7-21.4,3.7c-8.4,0-15.9-1.4-21.4-3.7C485.1,155.1,481.7,152,481.7,148.5z"/>
			<path class="st2" d="M645.6,191.9c2.8-2.1,7.3-1.4,12.5,1.4c5.2,2.9,10.9,8,16.1,14.6c5.1,6.6,8.7,13.4,10.2,19.1
				c1.5,5.7,1.2,10.3-1.5,12.4c-2.8,2.1-7.3,1.4-12.5-1.4c-5.2-2.9-10.9-8-16.1-14.6c-5.1-6.6-8.7-13.4-10.2-19.1
				C642.5,198.7,642.9,194.1,645.6,191.9z"/>
			<path class="st2" d="M569.5,154.8c1.5-3.2,6-4.5,11.9-4.1s13.3,2.4,20.8,6.1c7.5,3.7,13.7,8.3,17.7,12.7s5.6,8.8,4.1,12
				s-6,4.5-11.9,4.1s-13.3-2.4-20.8-6.1c-7.5-3.7-13.7-8.3-17.7-12.7C569.7,162.2,568,157.9,569.5,154.8z"/>
			<path class="st2" d="M699.6,259.9c3.4-1.1,7.3,1.3,11.1,5.9s7.3,11.4,9.8,19.4c2.4,8,3.3,15.6,2.7,21.5s-2.6,10-6,11.1
				s-7.3-1.3-11.1-5.9s-7.3-11.4-9.8-19.4c-2.4-8-3.3-15.6-2.7-21.5C694.2,265,696.2,260.8,699.6,259.9z"/>
			<path class="st2" d="M490.6,184.7c5.6-3.5,13.2-5.4,21.4-5.4c8.2,0,15.8,1.9,21.4,5.4c5.6,3.5,8.9,8.2,8.9,13.1
				s-3.3,9.6-8.9,13.1c-5.6,3.5-13.2,5.4-21.4,5.4s-15.8-1.9-21.4-5.4s-8.9-8.2-8.9-13.1S485,188.2,490.6,184.7z"/>
			<path class="st2" d="M639.5,230.9c6.2,2.5,12.2,7.5,17,14.1s7.7,13.9,8.2,20.5s-1.4,12-5.4,14.9s-9.7,3-15.8,0.5
				c-6.2-2.5-12.2-7.5-17-14.1s-7.7-13.9-8.2-20.5s1.4-12,5.4-14.9C627.7,228.6,633.4,228.5,639.5,230.9z"/>
			<path class="st2" d="M572,188.6c6.6-0.6,14.3,1.2,21.5,4.9s13.2,8.9,16.6,14.6c3.4,5.7,4.1,11.3,1.9,15.7
				c-2.2,4.4-7.2,7-13.8,7.6s-14.3-1.2-21.5-4.9s-13.2-8.9-16.6-14.6c-3.4-5.7-4.1-11.3-1.9-15.7C560.4,191.7,565.5,189,572,188.6z"
				/>
			<path class="st2" d="M682.5,301.8c4.2,5.1,7.2,12.4,8.4,20.5s0.3,15.9-2.4,21.9c-2.7,6.1-6.9,9.9-11.8,10.6
				c-4.8,0.7-9.9-1.8-14.2-6.9c-4.2-5.1-7.2-12.4-8.4-20.5s-0.3-15.9,2.4-21.9c2.7-6.1,6.9-9.9,11.8-10.6
				C673.2,294.1,678.3,296.6,682.5,301.8z"/>
			<path class="st2" d="M490.6,241.6c5.8-4.7,13.4-7.1,21.4-7.1c7.9,0,15.6,2.4,21.4,7.1c5.8,4.7,8.9,10.9,8.9,17.3
				s-3.1,12.5-8.9,17.3c-5.8,4.7-13.4,7.1-21.4,7.1s-15.6-2.4-21.4-7.1s-8.9-10.9-8.9-17.3S484.8,246.4,490.6,241.6z"/>
			<path class="st2" d="M581,311.8c-7.3-1-14.4-4.9-19.8-10.8s-8.9-13.1-9.4-20.6c-0.5-7.4,1.9-13.9,6.6-18.2
				c4.6-4.3,11.3-6.3,18.6-5.3c7.3,1,14.4,4.9,19.8,10.8c5.4,5.8,8.9,13.1,9.4,20.6c0.5,7.4-1.9,13.9-6.6,18.2
				S588.3,312.8,581,311.8z"/>
			<path class="st2" d="M377.9,191.9c-2.8-2.1-7.3-1.4-12.5,1.4s-10.9,8-16.1,14.6c-5.1,6.6-8.7,13.4-10.2,19.1
				c-1.5,5.7-1.2,10.3,1.5,12.4c2.8,2.1,7.3,1.4,12.5-1.4c5.2-2.9,10.9-8,16.1-14.6c5.1-6.6,8.7-13.4,10.2-19.1
				C381,198.7,380.7,194.1,377.9,191.9z"/>
			<path class="st2" d="M453.9,154.8c-1.5-3.2-6-4.5-11.9-4.1s-13.3,2.4-20.8,6.1c-7.5,3.7-13.7,8.3-17.7,12.7s-5.6,8.8-4.1,12
				s6,4.5,11.9,4.1s13.3-2.4,20.8-6.1c7.5-3.7,13.7-8.3,17.7-12.7C453.8,162.3,455.4,157.9,453.9,154.8z"/>
			<path class="st2" d="M323.8,259.9c-3.4-1.1-7.3,1.3-11.1,5.9c-3.8,4.5-7.3,11.4-9.8,19.4c-2.4,8-3.3,15.6-2.7,21.5
				c0.6,5.9,2.6,10,6,11.1s7.3-1.3,11.1-5.9c3.8-4.5,7.3-11.4,9.8-19.4c2.4-8,3.3-15.6,2.7-21.5S327.2,260.8,323.8,259.9z"/>
			<path class="st2" d="M383.9,230.9c-6.2,2.5-12.2,7.5-17,14.1s-7.7,13.9-8.2,20.5s1.4,12,5.4,14.9s9.7,3,15.8,0.5
				s12.2-7.5,17-14.1s7.7-13.9,8.2-20.5s-1.4-12-5.4-14.9C395.8,228.6,390,228.5,383.9,230.9z"/>
			<path class="st2" d="M451.4,188.6c-6.6-0.6-14.3,1.2-21.5,4.9c-7.2,3.8-13.2,8.9-16.6,14.6c-3.4,5.7-4.1,11.3-1.9,15.7
				s7.2,7,13.8,7.6s14.3-1.2,21.5-4.9s13.2-8.9,16.6-14.6c3.4-5.7,4.1-11.3,1.9-15.7C463,191.7,458,189,451.4,188.6z"/>
			<path class="st2" d="M340.9,301.8c-4.2,5.1-7.2,12.4-8.4,20.5c-1.2,8.1-0.3,15.9,2.4,21.9c2.7,6.1,6.9,9.9,11.8,10.6
				s9.9-1.8,14.2-6.9c4.2-5.1,7.2-12.4,8.4-20.5c1.2-8.1,0.3-15.9-2.4-21.9c-2.7-6.1-6.9-9.9-11.8-10.6
				C350.3,294.1,345.1,296.6,340.9,301.8z"/>
			<path class="st2" d="M442.4,311.8c7.3-1,14.4-4.9,19.8-10.8s8.9-13.1,9.4-20.6c0.5-7.4-1.9-13.9-6.6-18.2
				c-4.6-4.3-11.3-6.3-18.6-5.3c-7.3,1-14.4,4.9-19.8,10.8c-5.4,5.8-8.9,13.1-9.4,20.6c-0.5,7.4,1.9,13.9,6.6,18.2
				S435.1,312.8,442.4,311.8z"/>
		</g>
	</g>
	<circle class="st3" cx="512" cy="361.5" r="199"/>
	<path class="st4" d="M184.3,873c0-396.8,655.5-396.8,655.5,0"/>
	<path class="st5" d="M711.4,380.4c0,90-89.3,180.1-199.4,180.1s-199.4-90-199.4-180.1"/>
	<rect x="107.2" y="85.4" class="st6" width="265.5" height="149.3"/>
	<text transform="matrix(1 0 0 1 107.2294 136.4772)" class="st7 st8 st9">EMG</text>
	<g class="st1">
		<path class="st10" d="M112.3,135.8V85.4H138v7.8h-15.9v12.7h14.1v7.7h-14.1V128H138v7.8H112.3z"/>
		<path class="st10" d="M175.6,135.8V92.6l-6.2,26.2h-7.5l-6.5-26.2v43.1h-8.8V85.4h15l4.2,19.4l4.3-19.4h14.3v50.4H175.6z"/>
		<path class="st10" d="M222.4,135.1c-1.9,0.4-4,0.7-6.2,0.9c-2.2,0.2-4.3,0.4-6.2,0.4c-3,0-5.6-0.4-7.7-1.2
			c-2.1-0.8-3.9-2.1-5.2-4.1c-1.3-2-2.3-4.7-2.9-8.1c-0.6-3.4-0.9-7.8-0.9-13.2c0-5.3,0.4-9.6,1.2-12.9c0.8-3.3,2-5.8,3.6-7.6
			c1.6-1.8,3.5-3,5.8-3.6c2.3-0.6,4.9-0.9,7.9-0.9c1.2,0,2.7,0.1,4.4,0.4c1.7,0.2,3.3,0.5,4.8,0.9v8.5c-1.5-0.3-3.2-0.5-4.9-0.8
			c-1.8-0.2-3.4-0.3-4.9-0.3c-1.5,0-2.7,0.2-3.7,0.6c-1,0.4-1.8,1.3-2.4,2.5c-0.6,1.2-1,2.9-1.3,5.1c-0.2,2.2-0.4,5.1-0.4,8.6
			c0,3.6,0.1,6.5,0.3,8.8c0.2,2.3,0.6,4.1,1.1,5.4c0.5,1.3,1.2,2.2,2,2.6c0.8,0.5,1.9,0.7,3.1,0.7c0.5,0,1,0,1.5,0s1,0,1.5-0.1
			v-11.4h-4.6v-8.5h14.2V135.1z"/>
	</g>
</g>
<g id="Ebene_2">
	<g class="st1">
		<path class="st2" d="M57.3,765.2c-6.2,2.5-12.2,7.5-17,14.1c-4.8,6.6-7.7,13.9-8.2,20.5c-0.5,6.6,1.4,12,5.4,14.9s9.7,3,15.8,0.5
			c6.2-2.5,12.2-7.5,17-14.1c4.8-6.6,7.7-13.9,8.2-20.5c0.5-6.6-1.4-12-5.4-14.9C69.2,762.9,63.4,762.8,57.3,765.2z"/>
		<path class="st2" d="M121.8,713.7c-6.6,0-14.1,2.4-21,6.8c-6.9,4.4-12.4,10-15.3,16c-2.9,6-3.1,11.6-0.6,15.8
			c2.6,4.2,7.8,6.4,14.4,6.4s14.1-2.4,21-6.8c6.9-4.3,12.4-10,15.3-16c2.9-6,3.1-11.6,0.6-15.8S128.4,713.7,121.8,713.7z"/>
		<path class="st2" d="M15.1,835.7c-4.4,5-7.7,12.1-9.1,20.2c-1.4,8.1-0.8,15.9,1.6,22c2.5,6.2,6.5,10.2,11.4,11s10-1.5,14.4-6.4
			c4.4-5,7.7-12.1,9.1-20.2c1.4-8.1,0.8-15.9-1.6-22c-2.5-6.2-6.5-10.2-11.4-11C24.7,828.4,19.5,830.7,15.1,835.7z"/>
	</g>
	<g class="st1">
		<polygon class="st2" points="163.1,672.5 223.3,672.5 193.2,749 		"/>
		<g class="st11">
			<path class="st12" d="M193.2,581c21.8,0,39.5,17.7,39.5,39.5c0,21.8-17.7,39.5-39.5,39.5s-39.5-17.7-39.5-39.5
				C153.7,598.7,171.4,581,193.2,581 M193.2,551c-38.4,0-69.5,31.1-69.5,69.5c0,38.4,31.1,69.5,69.5,69.5s69.5-31.1,69.5-69.5
				C262.6,582.1,231.6,551,193.2,551L193.2,551z"/>
		</g>
	</g>
	<path class="st13" d="M795.7,658.7"/>
	<path class="st13" d="M665.4,478.5"/>
	<g class="st1">
		<g class="st11">
			<path class="st14" d="M878.2-184.7c-74.2,0-134.6,60.4-134.6,134.6c0,25.8,7.3,52.1,21.1,73.7L862,175.8
				c3.5,5.5,9.7,8.9,16.2,8.9c6.6,0,12.7-3.3,16.2-8.9l97.3-152.2c13.8-21.6,21.1-47.9,21.1-73.7
				C1012.8-124.3,952.4-184.7,878.2-184.7z"/>
		</g>
		<circle class="st15" cx="878.2" cy="-49" r="104.1"/>
		<path class="st16" d="M774.1-95.2c0,0,90.3,46.2,126.4,163.2"/>
		<path class="st16" d="M798.7-121.7c0,0,135.6,33.6,130.8,177.7"/>
	</g>
	<path class="st17" d="M493.3,797.5"/>
	<path class="st17" d="M493.3,675.6"/>
	<g class="st1">
		<path class="st18" d="M703.7,700.7c0,0-26.8,110.1,75.4,182.3"/>
		<path class="st18" d="M703.7,700.7c0,0,17,108.2,75.4,182.3"/>
		<path class="st18" d="M703.7,700.7c0,0,52.4,59.6,75.4,182.3"/>
		<path class="st18" d="M703.7,700.7c0,0,93.4,48.5,75.4,182.3"/>
	</g>
	<path class="st14" d="M798.1,885.6c0,0,0.1-0.1,0.1-0.1c0-0.1,0.1-0.2,0.1-0.2c0-0.1,0.1-0.1,0.1-0.2c0-0.1,0-0.1,0.1-0.2
		c0-0.1,0.1-0.2,0.1-0.2c0-0.1,0-0.2,0.1-0.2c0-0.1,0.1-0.3,0.1-0.4c0-0.1,0-0.1,0-0.2c0,0,0,0,0-0.1c0,0,0,0,0,0
		c9.4-69.9-11.9-116.4-31.5-143.2c-21.3-29.1-44.6-41.4-45.6-41.9c0,0,0,0-0.1,0c0,0-0.1,0-0.1,0c0,0,0,0,0,0
		c-0.2-0.1-0.3-0.1-0.5-0.2c-0.1,0-0.2-0.1-0.3-0.1c0,0,0,0-0.1,0c-0.2,0-0.4-0.1-0.5-0.1c-0.1,0-0.2,0-0.3-0.1c0,0,0,0-0.1,0
		c0,0-0.1,0-0.1,0c-0.1,0-0.3,0-0.4,0c-0.1,0-0.2,0-0.4,0c0,0-0.1,0-0.1,0c-0.2,0-0.3,0.1-0.5,0.1c-0.1,0-0.2,0-0.3,0.1
		c0,0-0.1,0-0.1,0c0,0-0.1,0-0.1,0c-0.1,0-0.1,0.1-0.2,0.1c-0.1,0-0.1,0-0.1,0.1c-0.1,0-0.2,0.1-0.3,0.1c0,0-0.1,0-0.1,0.1
		c0,0-0.1,0-0.1,0c-0.1,0.1-0.2,0.2-0.3,0.2c-0.1,0.1-0.2,0.1-0.3,0.2c0,0,0,0-0.1,0c0,0,0,0,0,0c0,0,0,0-0.1,0.1
		c-0.1,0.1-0.2,0.2-0.3,0.3c0,0,0,0,0,0c-0.1,0.1-0.2,0.2-0.2,0.3c0,0,0,0-0.1,0.1c0,0,0,0,0,0.1c-0.1,0.1-0.1,0.2-0.2,0.4
		c0,0,0,0,0,0.1c0,0.1-0.1,0.1-0.1,0.2c0,0,0,0,0,0.1c0,0,0,0.1,0,0.1c0,0,0,0,0,0c-0.1,0.2-0.1,0.3-0.2,0.5c0,0.1-0.1,0.2-0.1,0.3
		c0,0,0,0,0,0.1s0,0,0,0.1c0,0,0,0,0,0c-0.3,1.2-6.8,28.6-0.7,65.3c5.6,33.9,23.6,82.2,77.1,120c0,0,0.1,0,0.1,0
		c0.1,0.1,0.2,0.1,0.2,0.2c0,0,0,0,0.1,0c0,0,0.1,0,0.1,0.1c0,0,0.1,0,0.1,0.1c0,0,0.1,0,0.1,0c0.1,0.1,0.3,0.1,0.4,0.2
		c0,0,0.1,0,0.1,0c0,0,0,0,0,0c0,0,0.1,0,0.1,0c0.1,0,0.1,0,0.2,0.1c0.1,0,0.3,0.1,0.4,0.1c0,0,0.1,0,0.1,0c0,0,0.1,0,0.1,0
		c0,0,0,0,0,0c0,0,0,0,0.1,0c0.2,0,0.4,0,0.6,0c0,0,0,0,0,0c0,0,0,0,0,0c0,0,0,0,0,0c0,0,0,0,0,0c0,0,0,0,0,0c0.2,0,0.4,0,0.7-0.1
		c0,0,0.1,0,0.1,0c0.1,0,0.1,0,0.2,0c0.2,0,0.3-0.1,0.5-0.1c0.1,0,0.1,0,0.2-0.1c0,0,0.1,0,0.1,0c0,0,0.1,0,0.1,0c0,0,0.1,0,0.1-0.1
		c0.1-0.1,0.2-0.1,0.3-0.2c0,0,0.1-0.1,0.1-0.1c0,0,0,0,0,0c0.1,0,0.1-0.1,0.2-0.1c0,0,0.1,0,0.1-0.1c0,0,0,0,0,0
		c0.1-0.1,0.2-0.1,0.2-0.2c0,0,0.1,0,0.1-0.1c0,0,0,0,0,0c0,0,0.1-0.1,0.1-0.1c0,0,0,0,0,0c0,0,0.1-0.1,0.1-0.1c0,0,0.1-0.1,0.1-0.1
		c0.1-0.1,0.1-0.1,0.2-0.2c0,0,0.1-0.1,0.1-0.1c0,0,0.1-0.1,0.1-0.1c0-0.1,0.1-0.1,0.1-0.2c0,0,0,0,0,0c0-0.1,0.1-0.1,0.1-0.2
		C798,885.6,798,885.6,798.1,885.6z M733.7,732.3C748,756,768,796,782.1,852.4c0.4,1.7-1.8,2.6-2.7,1.1
		c-25.8-42.2-40.7-89.8-48.4-120.1C730.6,731.7,732.8,730.8,733.7,732.3z M759.6,746.7c13.5,18.5,27.8,47.2,30.9,87.4
		c0.1,1.8-2.4,2.2-2.9,0.5c-11.1-39.3-24.5-69.3-35.1-89.4c-1.5-2.9-3.1-5.7-4.5-8.3c-0.9-1.5,1.2-3,2.4-1.7
		C753.4,738.7,756.5,742.5,759.6,746.7z M723.6,765.8c-1-6.2-1.7-12.1-2.1-17.7c-0.1-1.8,2.4-2.2,2.9-0.5c1.7,6,3.6,12.5,5.8,19.4
		c6.9,21.7,17.4,49.6,32.3,77c0.9,1.6-1.3,3-2.4,1.6C740.9,822.8,728.7,796.1,723.6,765.8z"/>
	<g class="st1">
		<path class="st2" d="M817.8,575.6l15.1,4.7c0.5,0.2,0.8,0.8,0.6,1.3l-76.4,211.5c-0.4,1.2-2.2,0.6-1.9-0.6l61.4-216.2
			C816.7,575.8,817.2,575.5,817.8,575.6z"/>
		<path class="st2" d="M824.3,617.2l-20.5-6.4c-5.1-1.6-8-7.1-6.4-12.3l25.1-80.2c1.6-5.1,7.1-8,12.3-6.4l20.5,6.4
			c5.1,1.6,8,7.1,6.4,12.3l-25.1,80.2C835,615.9,829.4,618.8,824.3,617.2z"/>
	</g>
	<g class="st1">
		<polygon class="st2" points="220.6,600.2 207,604.1 263.2,776.6 		"/>
		<path class="st2" d="M215.7,632.6l12.4-3.5c5.2-1.5,8.2-6.9,6.8-12.1l-17-60c-1.5-5.2-6.9-8.2-12.1-6.8l-12.4,3.5
			c-5.2,1.5-8.2,6.9-6.8,12.1l17,60C205.1,631,210.5,634.1,215.7,632.6z"/>
	</g>
	<g class="st1">
		<g class="st11">
			<path class="st19" d="M466.4,739.4c0,0-85.1-5-137.4,65.2C328.9,804.6,419.6,808.1,466.4,739.4z"/>
			<path class="st19" d="M470.3,747.1c0,0-22,100.2-137.9,65.2"/>
			<g>
				<polygon class="st12" points="376.8,700.6 370.8,702.3 398.2,778.1 				"/>
			</g>
			<circle class="st20" cx="398.2" cy="773" r="76.6"/>
		</g>
		<path class="st21" d="M332.4,733.6l-26,43l27.4,37.7C333.8,814.3,302.8,776.6,332.4,733.6z"/>
	</g>
	<path class="st4" d="M337.2,713c0,0-76.3,44.6-76.3,159.9"/>
	<g>
		<path class="st12" d="M839.7,560l-18-5.6c-5.2-1.6-8.1-7.1-6.4-12.3l36.5-117.3c1.6-5.2,7.1-8.1,12.3-6.4l18,5.6
			c5.2,1.6,8.1,7.1,6.4,12.3L852,553.5C850.4,558.7,844.9,561.6,839.7,560z"/>
		<line class="st22" x1="851.9" y1="489.2" x2="757.5" y2="792.4"/>
	</g>
</g>
</svg>
