<?xml version="1.0" encoding="utf-8"?>
<!-- Generator: Adobe Illustrator 25.0.0, SVG Export Plug-In . SVG Version: 6.00 Build 0)  -->
<svg version="1.1" id="Ebene_1" xmlns="http://www.w3.org/2000/svg" xmlns:xlink="http://www.w3.org/1999/xlink" x="0px" y="0px"
	 width="1024px" height="1024px" viewBox="0 0 1024 1024" style="enable-background:new 0 0 1024 1024;" xml:space="preserve">
<style type="text/css">
	.st0{fill:#FFFFFF;}
	.st1{fill:none;}
	.st2{display:none;fill:#FFFFFF;}
	.st3{font-family:'Share-Bold';}
	.st4{font-size:72px;}
	.st5{display:none;}
	.st6{display:inline;fill:#FFFFFF;}
	.st7{display:inline;fill:#3fbbc0;}
	.st8{display:none;fill:none;stroke:#D0D0D0;stroke-width:30;stroke-miterlimit:10;}
	.st9{fill:none;stroke:#39516A;stroke-width:30;stroke-linecap:round;stroke-miterlimit:10;}
	.st10{fill:none;stroke:#2AE4D0;stroke-width:30;stroke-linecap:round;stroke-miterlimit:10;}
	.st11{display:none;fill:none;stroke:#2AE4D0;stroke-width:30;stroke-linecap:round;stroke-linejoin:round;stroke-miterlimit:10;}
</style>
<path class="st0" d="M30,0h964c16.6,0,30,13.4,30,30v964c0,16.6-13.4,30-30,30H30c-16.6,0-30-13.4-30-30V30C0,13.4,13.4,0,30,0z"/>
<rect x="107.2" y="85.4" class="st1" width="265.5" height="149.3"/>
<text transform="matrix(1 0 0 1 107.2294 136.4772)" class="st2 st3 st4">EP</text>
<g class="st5">
	<path class="st6" d="M112.3,135.8V85.4H138v7.8h-15.9v12.7h14.1v7.7h-14.1V128H138v7.8H112.3z"/>
	<path class="st6" d="M176.6,101.4c0,3.2-0.3,5.8-1,8c-0.7,2.2-1.7,3.9-3,5.3c-1.3,1.3-3,2.3-5,2.9c-2,0.6-4.3,0.9-6.9,0.9h-4.1
		v17.4h-9.9V85.4c1.4-0.1,2.9-0.2,4.4-0.4c1.3-0.1,2.7-0.2,4.3-0.3c1.6-0.1,3.1-0.1,4.6-0.1c3.3,0,6,0.4,8.1,1.1
		c2.1,0.7,3.8,1.8,5.1,3.2c1.3,1.4,2.2,3.2,2.7,5.3C176.3,96.3,176.6,98.7,176.6,101.4z M166.6,101.9c0-2.8-0.4-5-1.1-6.4
		c-0.7-1.5-2.1-2.2-4.2-2.2c-1.5,0-2.7,0.1-3.5,0.2c-0.5,0.1-0.9,0.2-1.2,0.2v16.2h4.5c1.7,0,3-0.7,4-2.2
		C166.1,106.3,166.6,104.4,166.6,101.9z"/>
</g>
<g>
	<g class="st5">
		<path class="st7" d="M481.7,148.5c0-3.5,3.4-6.7,8.9-9s13-3.7,21.4-3.7c8.4,0,15.9,1.4,21.4,3.7s8.9,5.4,8.9,9
			c0,3.5-3.4,6.7-8.9,9s-13,3.7-21.4,3.7c-8.4,0-15.9-1.4-21.4-3.7C485.1,155.1,481.7,152,481.7,148.5z"/>
		<path class="st7" d="M645.6,191.9c2.8-2.1,7.3-1.4,12.5,1.4c5.2,2.9,10.9,8,16.1,14.6c5.1,6.6,8.7,13.4,10.2,19.1
			c1.5,5.7,1.2,10.3-1.5,12.4c-2.8,2.1-7.3,1.4-12.5-1.4c-5.2-2.9-10.9-8-16.1-14.6c-5.1-6.6-8.7-13.4-10.2-19.1
			C642.5,198.7,642.9,194.1,645.6,191.9z"/>
		<path class="st7" d="M569.5,154.8c1.5-3.2,6-4.5,11.9-4.1s13.3,2.4,20.8,6.1c7.5,3.7,13.7,8.3,17.7,12.7s5.6,8.8,4.1,12
			s-6,4.5-11.9,4.1s-13.3-2.4-20.8-6.1c-7.5-3.7-13.7-8.3-17.7-12.7C569.7,162.2,568,157.9,569.5,154.8z"/>
		<path class="st7" d="M699.6,259.9c3.4-1.1,7.3,1.3,11.1,5.9s7.3,11.4,9.8,19.4c2.4,8,3.3,15.6,2.7,21.5s-2.6,10-6,11.1
			s-7.3-1.3-11.1-5.9s-7.3-11.4-9.8-19.4c-2.4-8-3.3-15.6-2.7-21.5C694.2,265,696.2,260.8,699.6,259.9z"/>
		<path class="st7" d="M490.6,184.7c5.6-3.5,13.2-5.4,21.4-5.4c8.2,0,15.8,1.9,21.4,5.4c5.6,3.5,8.9,8.2,8.9,13.1s-3.3,9.6-8.9,13.1
			c-5.6,3.5-13.2,5.4-21.4,5.4s-15.8-1.9-21.4-5.4s-8.9-8.2-8.9-13.1S485,188.2,490.6,184.7z"/>
		<path class="st7" d="M639.5,230.9c6.2,2.5,12.2,7.5,17,14.1s7.7,13.9,8.2,20.5s-1.4,12-5.4,14.9s-9.7,3-15.8,0.5
			c-6.2-2.5-12.2-7.5-17-14.1s-7.7-13.9-8.2-20.5s1.4-12,5.4-14.9C627.7,228.6,633.4,228.5,639.5,230.9z"/>
		<path class="st7" d="M572,188.6c6.6-0.6,14.3,1.2,21.5,4.9s13.2,8.9,16.6,14.6c3.4,5.7,4.1,11.3,1.9,15.7c-2.2,4.4-7.2,7-13.8,7.6
			s-14.3-1.2-21.5-4.9s-13.2-8.9-16.6-14.6c-3.4-5.7-4.1-11.3-1.9-15.7C560.4,191.7,565.5,189,572,188.6z"/>
		<path class="st7" d="M682.5,301.8c4.2,5.1,7.2,12.4,8.4,20.5s0.3,15.9-2.4,21.9c-2.7,6.1-6.9,9.9-11.8,10.6
			c-4.8,0.7-9.9-1.8-14.2-6.9c-4.2-5.1-7.2-12.4-8.4-20.5s-0.3-15.9,2.4-21.9c2.7-6.1,6.9-9.9,11.8-10.6
			C673.2,294.1,678.3,296.6,682.5,301.8z"/>
		<path class="st7" d="M490.6,241.6c5.8-4.7,13.4-7.1,21.4-7.1c7.9,0,15.6,2.4,21.4,7.1c5.8,4.7,8.9,10.9,8.9,17.3
			s-3.1,12.5-8.9,17.3c-5.8,4.7-13.4,7.1-21.4,7.1s-15.6-2.4-21.4-7.1s-8.9-10.9-8.9-17.3S484.8,246.4,490.6,241.6z"/>
		<path class="st7" d="M581,311.8c-7.3-1-14.4-4.9-19.8-10.8s-8.9-13.1-9.4-20.6c-0.5-7.4,1.9-13.9,6.6-18.2
			c4.6-4.3,11.3-6.3,18.6-5.3c7.3,1,14.4,4.9,19.8,10.8c5.4,5.8,8.9,13.1,9.4,20.6c0.5,7.4-1.9,13.9-6.6,18.2S588.3,312.8,581,311.8
			z"/>
		<path class="st7" d="M377.9,191.9c-2.8-2.1-7.3-1.4-12.5,1.4s-10.9,8-16.1,14.6c-5.1,6.6-8.7,13.4-10.2,19.1
			c-1.5,5.7-1.2,10.3,1.5,12.4c2.8,2.1,7.3,1.4,12.5-1.4c5.2-2.9,10.9-8,16.1-14.6c5.1-6.6,8.7-13.4,10.2-19.1
			C381,198.7,380.7,194.1,377.9,191.9z"/>
		<path class="st7" d="M453.9,154.8c-1.5-3.2-6-4.5-11.9-4.1s-13.3,2.4-20.8,6.1c-7.5,3.7-13.7,8.3-17.7,12.7s-5.6,8.8-4.1,12
			s6,4.5,11.9,4.1s13.3-2.4,20.8-6.1c7.5-3.7,13.7-8.3,17.7-12.7C453.8,162.3,455.4,157.9,453.9,154.8z"/>
		<path class="st7" d="M323.8,259.9c-3.4-1.1-7.3,1.3-11.1,5.9c-3.8,4.5-7.3,11.4-9.8,19.4c-2.4,8-3.3,15.6-2.7,21.5
			c0.6,5.9,2.6,10,6,11.1s7.3-1.3,11.1-5.9c3.8-4.5,7.3-11.4,9.8-19.4c2.4-8,3.3-15.6,2.7-21.5S327.2,260.8,323.8,259.9z"/>
		<path class="st7" d="M383.9,230.9c-6.2,2.5-12.2,7.5-17,14.1s-7.7,13.9-8.2,20.5s1.4,12,5.4,14.9s9.7,3,15.8,0.5s12.2-7.5,17-14.1
			s7.7-13.9,8.2-20.5s-1.4-12-5.4-14.9C395.8,228.6,390,228.5,383.9,230.9z"/>
		<path class="st7" d="M451.4,188.6c-6.6-0.6-14.3,1.2-21.5,4.9c-7.2,3.8-13.2,8.9-16.6,14.6c-3.4,5.7-4.1,11.3-1.9,15.7
			s7.2,7,13.8,7.6s14.3-1.2,21.5-4.9s13.2-8.9,16.6-14.6c3.4-5.7,4.1-11.3,1.9-15.7C463,191.7,458,189,451.4,188.6z"/>
		<path class="st7" d="M340.9,301.8c-4.2,5.1-7.2,12.4-8.4,20.5c-1.2,8.1-0.3,15.9,2.4,21.9c2.7,6.1,6.9,9.9,11.8,10.6
			s9.9-1.8,14.2-6.9c4.2-5.1,7.2-12.4,8.4-20.5c1.2-8.1,0.3-15.9-2.4-21.9c-2.7-6.1-6.9-9.9-11.8-10.6
			C350.3,294.1,345.1,296.6,340.9,301.8z"/>
		<path class="st7" d="M442.4,311.8c7.3-1,14.4-4.9,19.8-10.8s8.9-13.1,9.4-20.6c0.5-7.4-1.9-13.9-6.6-18.2
			c-4.6-4.3-11.3-6.3-18.6-5.3c-7.3,1-14.4,4.9-19.8,10.8c-5.4,5.8-8.9,13.1-9.4,20.6c-0.5,7.4,1.9,13.9,6.6,18.2
			S435.1,312.8,442.4,311.8z"/>
	</g>
</g>
<circle class="st8" cx="512" cy="361.5" r="199"/>
<path class="st9" d="M184.3,873c0-396.8,655.5-396.8,655.5,0"/>
<path class="st9" d="M711.4,380.4c0,90-89.3,180.1-199.4,180.1s-199.4-90-199.4-180.1"/>
<g>
	<path class="st10" d="M573.2,161.9c80.2,25.4,138.2,98,138.2,170.6"/>
	<path class="st10" d="M312.6,332.5c0-72.2,57.4-144.4,137-170.2"/>
	<line class="st10" x1="272.6" y1="293.8" x2="272.6" y2="419.3"/>
	<line class="st10" x1="751.4" y1="293.8" x2="751.4" y2="419.3"/>
	<line class="st10" x1="535.3" y1="152.4" x2="488.7" y2="152.4"/>
</g>
<polyline class="st11" points="955.6,152.4 904.5,152.4 904.5,560.5 955.6,560.5 "/>
<line class="st11" x1="751.4" y1="356.5" x2="904.5" y2="356.5"/>
</svg>
