<svg id="Ebene_1" data-name="Ebene 1" xmlns="http://www.w3.org/2000/svg" xmlns:xlink="http://www.w3.org/1999/xlink" viewBox="0 0 330 233"><defs><style>.cls-1,.cls-10,.cls-2{fill:none;}.cls-1{clip-rule:evenodd;}.cls-3{clip-path:url(#clip-path);}.cls-4{clip-path:url(#clip-path-2);}.cls-5{isolation:isolate;}.cls-6{clip-path:url(#clip-path-3);}.cls-7{fill:#fff;}.cls-8{fill:#293793;}.cls-9{clip-path:url(#clip-path-7);}.cls-10{stroke:#da1e36;stroke-linecap:round;stroke-miterlimit:10;stroke-width:0.67px;}.cls-11{clip-path:url(#clip-path-10);}.cls-12{fill:#e5283f;}</style><clipPath id="clip-path"><path class="cls-1" d="M2,23A23.39,23.39,0,0,1,25.33-.34H306.74A23.39,23.39,0,0,1,330.07,23V210.68A23.39,23.39,0,0,1,306.74,234H25.33A23.39,23.39,0,0,1,2,210.68Z"/></clipPath><clipPath id="clip-path-2"><rect class="cls-2" x="-1450.89" y="-3702.86" width="11107.57" height="14388.29"/></clipPath><clipPath id="clip-path-3"><rect class="cls-2" x="2" y="-0.34" width="328.07" height="234.34"/></clipPath><clipPath id="clip-path-7"><polygon class="cls-1" points="126.98 162.02 126.98 249.62 205.09 249.62 205.09 162.02 345.1 256.45 362.57 230.55 251.88 155.89 330.07 155.89 330.07 77.77 251.88 77.77 362.57 3.11 345.1 -22.79 205.09 71.65 205.09 -15.96 126.98 -15.96 126.98 71.65 -13.02 -22.79 -30.5 3.11 80.2 77.77 2 77.77 2 155.89 80.2 155.89 -30.5 230.55 -13.02 256.45 126.98 162.02"/></clipPath><clipPath id="clip-path-10"><polygon class="cls-1" points="2 140.26 142.6 140.26 142.6 234 189.47 234 189.47 140.26 330.07 140.26 330.07 93.4 189.47 93.4 189.47 -0.34 142.6 -0.34 142.6 93.4 2 93.4 2 140.26"/></clipPath></defs><title>FLAG_England@100</title><g class="cls-3"><g class="cls-4"><g class="cls-5"><g class="cls-6"><g class="cls-6"><rect class="cls-7" x="-56.58" y="-58.92" width="445.24" height="351.51"/></g><g class="cls-6"><g class="cls-6"><rect class="cls-8" x="-56.58" y="-58.92" width="445.24" height="351.51"/></g></g><g class="cls-9"><g class="cls-6"><rect class="cls-7" x="-89.08" y="-81.38" width="510.24" height="396.42"/></g></g><g class="cls-6"><line class="cls-10" x1="220.73" y1="73.85" x2="369.13" y2="-23.77"/><line class="cls-10" x1="236.49" y1="160.15" x2="369.52" y2="249.82"/><line class="cls-10" x1="95.8" y1="73.6" x2="-42.96" y2="-19.91"/><line class="cls-10" x1="110.85" y1="159.07" x2="-42.96" y2="261.07"/></g><g class="cls-11"><g class="cls-6"><rect class="cls-12" x="-56.58" y="-58.92" width="445.24" height="351.51"/></g></g></g></g></g></g></svg>