<?xml version="1.0" encoding="utf-8"?>
<!-- Generator: Adobe Illustrator 24.3.0, SVG Export Plug-In . SVG Version: 6.00 Build 0)  -->
<svg version="1.1" id="Ebene_1" xmlns="http://www.w3.org/2000/svg" xmlns:xlink="http://www.w3.org/1999/xlink" x="0px" y="0px"
	 width="1024px" height="1024px" viewBox="0 0 1024 1024" style="enable-background:new 0 0 1024 1024;" xml:space="preserve">
<style type="text/css">
	.st0{fill:#39516A;}
	.st1{fill:none;stroke:#FFFFFF;stroke-width:30;stroke-miterlimit:10;}
	.st2{fill:none;stroke:#FFFFFF;stroke-width:30;stroke-linecap:round;stroke-miterlimit:10;}
	.st3{fill:none;stroke:#2AE4D0;stroke-width:30;stroke-linecap:round;stroke-linejoin:round;stroke-miterlimit:10;}
	.st4{fill:none;}
	.st5{display:none;}
	.st6{display:inline;fill:#FFFFFF;}
</style>
<path class="st0" d="M30,0h964c16.6,0,30,13.4,30,30v964c0,16.6-13.4,30-30,30H30c-16.6,0-30-13.4-30-30V30C0,13.4,13.4,0,30,0z"/>
<circle class="st1" cx="512" cy="361.5" r="199"/>
<path class="st2" d="M184.3,873c0-396.8,655.5-396.8,655.5,0"/>
<path class="st3" d="M759.3,432.9c0,0,9.3-21.5,9.3-68.6c0-141.7-114.9-256.5-256.5-256.5S255.5,222.6,255.5,364.3
	c0,47,9.3,68.6,9.3,68.6h180.5l66.8-120l66.8,120H759.3z"/>
<rect x="107.2" y="85.4" class="st4" width="265.5" height="149.3"/>
<g class="st5">
	<path class="st6" d="M123.3,107.9v27.9h-9.6v-27.9H109v-8.1h4.7v-2.9c0-2.4,0.2-4.5,0.7-6c0.5-1.6,1.1-2.8,2.1-3.7
		c0.9-0.9,2.1-1.5,3.4-1.9c1.4-0.3,2.9-0.5,4.7-0.5c1.5,0,3.1,0.1,4.6,0.3c1.5,0.2,2.6,0.4,3.3,0.5v8.1c-0.8-0.2-1.7-0.4-2.7-0.5
		c-1-0.2-2.2-0.3-3.5-0.3c-1.2,0-2,0.3-2.4,0.9s-0.6,1.4-0.6,2.4v3.5h7.8v8.1L123.3,107.9L123.3,107.9z"/>
	<path class="st6" d="M165.8,135.8V92.6l-6.2,26.2h-7.5l-6.5-26.2v43.1h-8.8V85.4h15l4.2,19.4l4.3-19.4h14.3v50.4H165.8z"/>
	<path class="st6" d="M214.1,100.6c0,4-0.6,7.1-1.8,9.4s-2.9,4-5,5.1l9,20.7h-11.2l-7.6-19h-2.9v19h-9.9V85.4
		c1.4-0.1,2.9-0.2,4.4-0.4c1.3-0.1,2.7-0.2,4.3-0.3c1.6-0.1,3.1-0.1,4.6-0.1c3.1,0,5.7,0.3,7.8,1c2.1,0.6,3.7,1.6,5,3
		c1.2,1.3,2.1,3,2.6,5C213.9,95.6,214.1,97.9,214.1,100.6z M204.1,101.1c0-2.8-0.3-4.8-1-6s-2-1.8-4.1-1.8c-1.2,0-2.2,0.1-3,0.2
		c-0.5,0.1-1,0.2-1.4,0.2v14.5h4.5c1.5,0,2.7-0.6,3.6-1.8C203.7,105.3,204.1,103.5,204.1,101.1z"/>
	<path class="st6" d="M220.6,135.8v-7.6h5V93h-5v-7.6h19.9V93h-5v35.1h5v7.6L220.6,135.8L220.6,135.8z"/>
</g>
</svg>
