<?xml version="1.0" encoding="utf-8"?>
<!-- Generator: Adobe Illustrator 24.3.0, SVG Export Plug-In . SVG Version: 6.00 Build 0)  -->
<svg version="1.1" id="Ebene_1" xmlns="http://www.w3.org/2000/svg" xmlns:xlink="http://www.w3.org/1999/xlink" x="0px" y="0px"
	 width="1024px" height="1024px" viewBox="0 0 1024 1024" style="enable-background:new 0 0 1024 1024;" xml:space="preserve">
<style type="text/css">
	.st0{display:none;}
	.st1{display:inline;fill:#FFFFFF;}
	.st2{fill:#39516A;}
	.st3{fill:none;stroke:#FFFFFF;stroke-width:30;stroke-miterlimit:10;}
	.st4{fill:none;stroke:#FFFFFF;stroke-width:30;stroke-linecap:round;stroke-miterlimit:10;}
	.st5{fill:#2AE4D0;}
	.st6{fill:none;}
	.st7{fill:none;stroke:#2AE4D0;stroke-width:30;stroke-linecap:round;stroke-linejoin:round;stroke-miterlimit:10;}
</style>
<g class="st0">
	<path class="st1" d="M142.5,120.3c0,3-0.3,5.5-1,7.5c-0.7,2-1.7,3.7-3,4.9c-1.3,1.2-2.9,2.1-4.8,2.7c-1.9,0.6-4.1,0.8-6.5,0.8
		c-2.4,0-4.6-0.3-6.5-0.8c-1.9-0.6-3.5-1.5-4.8-2.7c-1.3-1.2-2.3-2.9-3-4.9c-0.7-2-1-4.5-1-7.5V85.4h9.9v36.3c0,4.1,1.8,6.1,5.5,6.1
		c1.9,0,3.2-0.5,4.1-1.5c0.9-1,1.3-2.6,1.3-4.6V85.4h9.9V120.3z"/>
	<path class="st1" d="M176.3,120.8c0,3.4-0.4,6.1-1.3,8.1c-0.8,2-2,3.6-3.5,4.7c-1.5,1.1-3.2,1.8-5.3,2.2c-2,0.3-4.3,0.5-6.7,0.5
		c-0.8,0-1.6,0-2.6-0.1c-0.9,0-1.9-0.1-2.8-0.2c-0.9-0.1-1.8-0.2-2.7-0.4c-0.8-0.1-1.6-0.3-2.2-0.4v-8.6c0.6,0.1,1.3,0.3,2.1,0.4
		s1.6,0.3,2.5,0.4c0.9,0.1,1.7,0.2,2.6,0.3c0.9,0.1,1.7,0.1,2.4,0.1c2.3,0,4-0.5,5.4-1.4c1.3-0.9,2-2.6,2-4.9c0-1.3-0.1-2.4-0.4-3.3
		c-0.3-0.9-0.7-1.7-1.2-2.2c-0.5-0.6-1.2-1-1.9-1.4c-0.8-0.3-1.6-0.6-2.6-0.8c-4-0.8-6.9-2.4-8.6-4.7c-1.7-2.3-2.6-5.6-2.6-9.8
		c0-2.7,0.4-4.9,1.1-6.8c0.7-1.8,1.8-3.3,3.3-4.5c1.5-1.2,3.3-2,5.4-2.5c2.1-0.5,4.6-0.8,7.3-0.8c0.7,0,1.4,0,2.2,0.1
		c0.8,0,1.6,0.1,2.4,0.3c0.8,0.1,1.6,0.2,2.3,0.4c0.7,0.1,1.4,0.3,1.9,0.4v8.5c-0.6-0.1-1.4-0.3-2.2-0.4c-0.8-0.1-1.7-0.2-2.6-0.4
		c-0.9-0.1-1.8-0.2-2.6-0.3c-0.9,0-1.6-0.1-2.2-0.1c-2.1,0-3.6,0.4-4.8,1.2c-1.1,0.8-1.7,2.1-1.7,4c0,1.2,0.1,2.1,0.3,2.8
		c0.2,0.7,0.5,1.3,0.9,1.8c0.4,0.5,1,0.8,1.7,1.1s1.7,0.6,2.8,0.8c1.7,0.3,3.3,0.9,4.7,1.5c1.4,0.7,2.6,1.6,3.7,2.8
		c1,1.2,1.8,2.7,2.4,4.5C176,115.8,176.3,118.1,176.3,120.8z"/>
</g>
<path class="st2" d="M30.5,0h964c16.6,0,30,13.4,30,30v964c0,16.6-13.4,30-30,30h-964c-16.6,0-30-13.4-30-30V30
	C0.5,13.4,13.9,0,30.5,0z"/>
<circle class="st3" cx="512.5" cy="361.5" r="199"/>
<path class="st4" d="M184.8,873c0-396.8,655.5-396.8,655.5,0"/>
<g>
	<path class="st4" d="M428.7,329.6c0,0,24.7,11,57.7,0"/>
	<path class="st4" d="M538.6,329.6c0,0,24.7,11,57.7,0"/>
</g>
<g>
	<path class="st5" d="M491.1,224.7c5.6-3.5,13.2-5.4,21.4-5.4c8.2,0,15.8,1.9,21.4,5.4c5.6,3.5,8.9,8.2,8.9,13.1s-3.3,9.6-8.9,13.1
		c-5.6,3.5-13.2,5.4-21.4,5.4s-15.8-1.9-21.4-5.4s-8.9-8.2-8.9-13.1C482.2,232.9,485.5,228.2,491.1,224.7z"/>
	<path class="st5" d="M572.5,228.6c6.6-0.6,14.3,1.2,21.5,4.9s13.2,8.9,16.6,14.6c3.4,5.7,4.1,11.3,1.9,15.7
		c-2.2,4.4-7.2,7-13.8,7.6s-14.3-1.2-21.5-4.9c-7.2-3.7-13.2-8.9-16.6-14.6s-4.1-11.3-1.9-15.7C560.9,231.7,566,229,572.5,228.6z"/>
	<path class="st5" d="M451.9,228.6c-6.6-0.6-14.3,1.2-21.5,4.9c-7.2,3.8-13.2,8.9-16.6,14.6c-3.4,5.7-4.1,11.3-1.9,15.7
		c2.2,4.4,7.2,7,13.8,7.6c6.6,0.6,14.3-1.2,21.5-4.9c7.2-3.7,13.2-8.9,16.6-14.6c3.4-5.7,4.1-11.3,1.9-15.7
		C463.5,231.7,458.5,229,451.9,228.6z"/>
</g>
<g>
	<path class="st5" d="M491.1,506.1c5.6,3.5,13.2,5.4,21.4,5.4c8.2,0,15.8-1.9,21.4-5.4c5.6-3.5,8.9-8.2,8.9-13.1s-3.3-9.6-8.9-13.1
		c-5.6-3.5-13.2-5.4-21.4-5.4s-15.8,1.9-21.4,5.4s-8.9,8.2-8.9,13.1S485.5,502.6,491.1,506.1z"/>
	<path class="st5" d="M572.5,502.2c6.6,0.6,14.3-1.2,21.5-4.9c7.2-3.7,13.2-8.9,16.6-14.6c3.4-5.7,4.1-11.3,1.9-15.7
		c-2.2-4.4-7.2-7-13.8-7.6s-14.3,1.2-21.5,4.9c-7.2,3.7-13.2,8.9-16.6,14.6s-4.1,11.3-1.9,15.7C560.9,499.1,566,501.8,572.5,502.2z"
		/>
	<path class="st5" d="M451.9,502.2c-6.6,0.6-14.3-1.2-21.5-4.9c-7.2-3.8-13.2-8.9-16.6-14.6s-4.1-11.3-1.9-15.7
		c2.2-4.4,7.2-7,13.8-7.6c6.6-0.6,14.3,1.2,21.5,4.9c7.2,3.7,13.2,8.9,16.6,14.6s4.1,11.3,1.9,15.7
		C463.5,499.1,458.5,501.8,451.9,502.2z"/>
</g>
<rect x="107.7" y="85.4" class="st6" width="265.5" height="149.3"/>
<g class="st0">
	<path class="st1" d="M142.6,101.4c0,3.2-0.3,5.8-1,8s-1.7,3.9-3,5.3c-1.3,1.3-3,2.3-5,2.9s-4.3,0.9-6.9,0.9h-4.1v17.4h-9.9V85.4
		c1.4-0.1,2.9-0.2,4.4-0.4c1.3-0.1,2.7-0.2,4.3-0.3c1.6-0.1,3.1-0.1,4.6-0.1c3.3,0,6,0.4,8.1,1.1s3.8,1.8,5.1,3.2
		c1.3,1.4,2.2,3.2,2.7,5.3C142.4,96.3,142.6,98.7,142.6,101.4z M132.6,101.9c0-2.8-0.4-5-1.1-6.4c-0.7-1.5-2.1-2.2-4.2-2.2
		c-1.5,0-2.7,0.1-3.5,0.2c-0.5,0.1-0.9,0.2-1.2,0.2v16.2h4.5c1.7,0,3-0.7,4-2.2C132.1,106.3,132.6,104.4,132.6,101.9z"/>
	<path class="st1" d="M174.3,120.8c0,3.4-0.4,6.1-1.3,8.1c-0.8,2-2,3.6-3.5,4.7c-1.5,1.1-3.2,1.8-5.3,2.2c-2,0.3-4.3,0.5-6.7,0.5
		c-0.8,0-1.6,0-2.6-0.1c-0.9,0-1.9-0.1-2.8-0.2c-0.9-0.1-1.8-0.2-2.7-0.4c-0.8-0.1-1.6-0.3-2.2-0.4v-8.6c0.6,0.1,1.3,0.3,2.1,0.4
		s1.6,0.3,2.5,0.4s1.7,0.2,2.6,0.3c0.9,0.1,1.7,0.1,2.4,0.1c2.3,0,4-0.5,5.4-1.4c1.3-0.9,2-2.6,2-4.9c0-1.3-0.1-2.4-0.4-3.3
		c-0.3-0.9-0.7-1.7-1.2-2.2c-0.5-0.6-1.2-1-1.9-1.4c-0.8-0.3-1.6-0.6-2.6-0.8c-4-0.8-6.9-2.4-8.6-4.7c-1.7-2.3-2.6-5.6-2.6-9.8
		c0-2.7,0.4-4.9,1.1-6.8c0.7-1.8,1.8-3.3,3.3-4.5s3.3-2,5.4-2.5c2.1-0.5,4.6-0.8,7.3-0.8c0.7,0,1.4,0,2.2,0.1c0.8,0,1.6,0.1,2.4,0.3
		c0.8,0.1,1.6,0.2,2.3,0.4c0.7,0.1,1.4,0.3,1.9,0.4v8.5c-0.6-0.1-1.4-0.3-2.2-0.4s-1.7-0.2-2.6-0.4c-0.9-0.1-1.8-0.2-2.6-0.3
		c-0.9,0-1.6-0.1-2.2-0.1c-2.1,0-3.6,0.4-4.8,1.2c-1.1,0.8-1.7,2.1-1.7,4c0,1.2,0.1,2.1,0.3,2.8c0.2,0.7,0.5,1.3,0.9,1.8
		s1,0.8,1.7,1.1s1.7,0.6,2.8,0.8c1.7,0.3,3.3,0.9,4.7,1.5c1.4,0.7,2.6,1.6,3.7,2.8c1,1.2,1.8,2.7,2.4,4.5
		C174,115.8,174.3,118.1,174.3,120.8z"/>
	<path class="st1" d="M208.5,135.1c-1.9,0.4-4,0.7-6.2,0.9s-4.3,0.4-6.2,0.4c-3,0-5.6-0.4-7.7-1.2c-2.1-0.8-3.9-2.1-5.2-4.1
		s-2.3-4.7-2.9-8.1c-0.6-3.4-0.9-7.8-0.9-13.2c0-5.3,0.4-9.6,1.2-12.9s2-5.8,3.6-7.6c1.6-1.8,3.5-3,5.8-3.6s4.9-0.9,7.9-0.9
		c1.2,0,2.7,0.1,4.4,0.4c1.7,0.2,3.3,0.5,4.8,0.9v8.5c-1.5-0.3-3.2-0.5-4.9-0.8c-1.8-0.2-3.4-0.3-4.9-0.3s-2.7,0.2-3.7,0.6
		s-1.8,1.3-2.4,2.5c-0.6,1.2-1,2.9-1.3,5.1c-0.2,2.2-0.4,5.1-0.4,8.6c0,3.6,0.1,6.5,0.3,8.8s0.6,4.1,1.1,5.4s1.2,2.2,2,2.6
		c0.8,0.5,1.9,0.7,3.1,0.7c0.5,0,1,0,1.5,0s1,0,1.5-0.1v-11.4h-4.6v-8.5h14.1L208.5,135.1L208.5,135.1z"/>
</g>
<g>
	<path class="st7" d="M541.1,861.6H484c-6.6,0-12-5.4-12-12V736.2c0-6.6,5.4-12,12-12h57.1c6.6,0,12,5.4,12,12v113.4
		C553.1,856.2,547.7,861.6,541.1,861.6z"/>
	<line class="st7" x1="553.1" y1="792.9" x2="700.5" y2="792.9"/>
	<line class="st7" x1="324.5" y1="792.9" x2="471.9" y2="792.9"/>
</g>
</svg>
