<?xml version="1.0" encoding="utf-8"?>
<!-- Generator: Adobe Illustrator 24.3.0, SVG Export Plug-In . SVG Version: 6.00 Build 0)  -->
<svg version="1.1" id="Ebene_1" xmlns="http://www.w3.org/2000/svg" xmlns:xlink="http://www.w3.org/1999/xlink" x="0px" y="0px"
	 width="1024px" height="1024px" viewBox="0 0 1024 1024" style="enable-background:new 0 0 1024 1024;" xml:space="preserve">
<style type="text/css">
	.st0{fill:#39516A;}
	.st1{fill:#FFFFFF;}
	.st2{fill:none;stroke:#2AE4D0;stroke-width:30;stroke-linecap:round;stroke-linejoin:round;stroke-miterlimit:10;}
	.st3{fill:none;stroke:#2AE4D0;stroke-width:30;stroke-linecap:round;stroke-miterlimit:10;}
	.st4{fill:#2AE4D0;}
	.st5{display:none;}
	.st6{display:inline;fill:#FFFFFF;}
</style>
<path class="st0" d="M30,0h964c16.6,0,30,13.4,30,30v964c0,16.6-13.4,30-30,30H30c-16.6,0-30-13.4-30-30V30C0,13.4,13.4,0,30,0z"/>
<path class="st1" d="M746.8,638.1c-31.5-25.4-68.4-45-109.8-58.4c-19.5-6.3-39.5-11-59.9-14.3c32.2-10.2,61.7-28.1,86.2-52.6
	c40.4-40.4,62.7-94.2,62.7-151.3s-22.3-110.9-62.7-151.3c-40.4-40.4-94.2-62.7-151.3-62.7c-57.2,0-110.9,22.3-151.3,62.7
	c-40.4,40.4-62.7,94.2-62.7,151.3s22.3,110.9,62.7,151.3c24.6,24.6,54.1,42.4,86.3,52.6c-20.4,3.2-40.4,8-59.9,14.3
	c-41.4,13.4-78.3,33-109.8,58.4c-70.7,57-108,138.2-108,234.9c0,8.3,6.7,15,15,15s15-6.7,15-15c0-87.2,33.5-160.4,96.8-211.5
	c28.6-23.1,62.3-41,100.2-53.2c36.7-11.9,75.7-17.9,115.7-17.9c40.1,0,79,6,115.7,17.9c37.9,12.2,71.6,30.1,100.2,53.2
	c63.4,51.1,96.8,124.3,96.8,211.5c0,8.3,6.7,15,15,15s15-6.7,15-15C854.8,776.4,817.5,695.2,746.8,638.1z M328,361.5
	c0-101.5,82.5-184,184-184s184,82.5,184,184s-82.5,184-184,184S328,463,328,361.5z"/>
<path class="st2" d="M735.4,391.5"/>
<path class="st2" d="M683.9,251.5"/>
<path class="st2" d="M428.9,272.6"/>
<path class="st2" d="M360.2,493.2"/>
<path class="st2" d="M360.2,473.2"/>
<path class="st2" d="M313,251.5"/>
<g>
	<path class="st3" d="M658.4,406.7c0,0-18.2-16.5-18.2-45.2s18.2-45.2,18.2-45.2"/>
	<path class="st3" d="M602.4,426.2c0,0-26.1-23.6-26.1-64.7s26.1-64.7,26.1-64.7"/>
	<path class="st3" d="M546.5,445.7c0,0-33.9-30.7-33.9-84.2s33.9-84.2,33.9-84.2"/>
</g>
<g>
	<path class="st4" d="M744.6,373.4v-23.7c0-8.2,6.8-15,15-15h114.1c8.2,0,15,6.8,15,15v23.7c0,8.2-6.8,15-15,15H759.6
		C751.3,388.4,744.6,381.6,744.6,373.4z"/>
	<line class="st3" x1="821.2" y1="361.5" x2="956.6" y2="361.5"/>
</g>
<g class="st5">
	<path class="st6" d="M142.5,120.3c0,3-0.3,5.5-1,7.5c-0.7,2-1.7,3.7-3,4.9c-1.3,1.2-2.9,2.1-4.8,2.7c-1.9,0.6-4.1,0.8-6.5,0.8
		c-2.4,0-4.6-0.3-6.5-0.8c-1.9-0.6-3.5-1.5-4.8-2.7c-1.3-1.2-2.3-2.9-3-4.9c-0.7-2-1-4.5-1-7.5V85.4h9.9v36.3c0,4.1,1.8,6.1,5.5,6.1
		c1.9,0,3.2-0.5,4.1-1.5c0.9-1,1.3-2.6,1.3-4.6V85.4h9.9V120.3z"/>
	<path class="st6" d="M176.3,120.8c0,3.4-0.4,6.1-1.3,8.1c-0.8,2-2,3.6-3.5,4.7c-1.5,1.1-3.2,1.8-5.3,2.2c-2,0.3-4.3,0.5-6.7,0.5
		c-0.8,0-1.6,0-2.6-0.1c-0.9,0-1.9-0.1-2.8-0.2c-0.9-0.1-1.8-0.2-2.7-0.4c-0.8-0.1-1.6-0.3-2.2-0.4v-8.6c0.6,0.1,1.3,0.3,2.1,0.4
		s1.6,0.3,2.5,0.4c0.9,0.1,1.7,0.2,2.6,0.3c0.9,0.1,1.7,0.1,2.4,0.1c2.3,0,4-0.5,5.4-1.4c1.3-0.9,2-2.6,2-4.9c0-1.3-0.1-2.4-0.4-3.3
		c-0.3-0.9-0.7-1.7-1.2-2.2c-0.5-0.6-1.2-1-1.9-1.4c-0.8-0.3-1.6-0.6-2.6-0.8c-4-0.8-6.9-2.4-8.6-4.7c-1.7-2.3-2.6-5.6-2.6-9.8
		c0-2.7,0.4-4.9,1.1-6.8c0.7-1.8,1.8-3.3,3.3-4.5c1.5-1.2,3.3-2,5.4-2.5c2.1-0.5,4.6-0.8,7.3-0.8c0.7,0,1.4,0,2.2,0.1
		c0.8,0,1.6,0.1,2.4,0.3c0.8,0.1,1.6,0.2,2.3,0.4c0.7,0.1,1.4,0.3,1.9,0.4v8.5c-0.6-0.1-1.4-0.3-2.2-0.4c-0.8-0.1-1.7-0.2-2.6-0.4
		c-0.9-0.1-1.8-0.2-2.6-0.3c-0.9,0-1.6-0.1-2.2-0.1c-2.1,0-3.6,0.4-4.8,1.2c-1.1,0.8-1.7,2.1-1.7,4c0,1.2,0.1,2.1,0.3,2.8
		c0.2,0.7,0.5,1.3,0.9,1.8c0.4,0.5,1,0.8,1.7,1.1s1.7,0.6,2.8,0.8c1.7,0.3,3.3,0.9,4.7,1.5c1.4,0.7,2.6,1.6,3.7,2.8
		c1,1.2,1.8,2.7,2.4,4.5C176,115.8,176.3,118.1,176.3,120.8z"/>
</g>
</svg>
