<?xml version="1.0" encoding="utf-8"?>
<!-- Generator: Adobe Illustrator 16.0.4, SVG Export Plug-In . SVG Version: 6.00 Build 0)  -->
<!DOCTYPE svg PUBLIC "-//W3C//DTD SVG 1.1//EN" "http://www.w3.org/Graphics/SVG/1.1/DTD/svg11.dtd">
<svg version="1.1" id="Ebene_1" xmlns="http://www.w3.org/2000/svg" xmlns:xlink="http://www.w3.org/1999/xlink" x="0px" y="0px"
	 width="182.825px" height="49.422px" viewBox="0 0 182.825 49.422" enable-background="new 0 0 182.825 49.422"
	 xml:space="preserve">
<g>
	<path fill="#F08700" d="M47.98,17.667c0.328-0.246,0.49-0.765,0.357-1.153l-0.291-0.792c-0.15-0.382-0.541-0.492-0.871-0.248
		l-7.605,5.689c-0.326,0.246-0.928,0.395-1.334,0.331l-1.947-0.306c-0.406-0.063-0.787-0.448-0.848-0.854l-0.346-2.354
		c-0.059-0.406,0.174-0.919,0.521-1.14l9.129-5.803c0.346-0.221,0.434-0.674,0.193-1.007l-0.451-0.602
		c-0.254-0.321-0.744-0.405-1.092-0.186l-9.125,5.801c-0.346,0.22-0.943,0.284-1.33,0.143l-3.08-1.136
		c-0.385-0.142-0.816,0.058-0.959,0.442l-0.258,0.7c-0.141,0.385,0.059,0.815,0.443,0.958l2.977,1.097
		c0.387,0.141,0.75,0.59,0.809,0.996l0.369,2.503c0.059,0.406-0.176,0.918-0.523,1.137l-6.477,4.09
		c-0.348,0.22-0.631,0.062-0.631-0.348V13.615c0-0.41,0.297-0.902,0.66-1.092l7.432-3.883c0.363-0.189,0.988-0.417,1.389-0.506
		l6.137-1.348c0.4-0.088,0.479-0.384,0.172-0.658l-1.008-0.854c-0.32-0.257-0.91-0.395-1.311-0.307L36.609,5.51
		c-0.4,0.088-0.594-0.146-0.43-0.522l0.572-1.307c0.164-0.376,0.002-0.843-0.359-1.036l-0.67-0.339
		c-0.369-0.178-0.807-0.015-0.971,0.361L33.41,5.742c-0.164,0.377-0.598,0.84-0.961,1.03l-6.178,3.227
		c-0.363,0.19-0.66,0.01-0.66-0.401v-2.46c0-0.41,0.189-1.023,0.42-1.362l3.322-4.873c0.232-0.339,0.09-0.674-0.312-0.746
		l-0.982-0.147c-0.408-0.05-0.93,0.186-1.16,0.524l-1.943,2.849c-0.23,0.339-0.578,0.321-0.771-0.041l-1.482-2.768
		c-0.193-0.362-0.686-0.617-1.092-0.566l-0.877,0.128c-0.404,0.07-0.576,0.423-0.383,0.785l2.672,4.993
		c0.193,0.362,0.354,0.994,0.354,1.404v9.771c0,0.41-0.309,0.61-0.684,0.445l-3.711-1.637c-0.375-0.166-0.709-0.637-0.744-1.046
		L17.168,1.757c-0.033-0.409-0.377-0.633-0.764-0.496l-0.781,0.296c-0.381,0.154-0.664,0.615-0.631,1.024l0.303,3.718
		c0.033,0.409-0.262,0.654-0.658,0.544L9.889,5.531C9.494,5.421,8.916,5.549,8.604,5.817L7.74,6.594
		C7.441,6.876,7.521,7.198,7.918,7.306l6.912,1.912c0.396,0.11,0.746,0.534,0.779,0.943l0.508,6.198
		c0.031,0.409,0.367,0.88,0.742,1.045l5.832,2.573c0.375,0.166,0.684,0.637,0.684,1.047v4.587c0,0.411-0.287,0.569-0.635,0.354
		l-4.646-2.871c-0.348-0.215-0.969-0.38-1.379-0.364l-4.48,0.16c-0.41,0.016-0.732-0.308-0.719-0.719l0.303-8.253
		c0.016-0.41-0.293-0.846-0.684-0.969l-6.242-1.957C4.502,10.87,4,11.052,3.779,11.398l-0.424,0.693
		c-0.205,0.356-0.053,0.747,0.338,0.87l5.143,1.612c0.391,0.123,0.699,0.559,0.684,0.969l-0.223,6.106
		c-0.016,0.409-0.326,0.592-0.691,0.403l-7.113-3.665c-0.365-0.187-0.746-0.016-0.846,0.383l-0.182,0.799
		c-0.08,0.401,0.15,0.885,0.516,1.072l3.232,1.665c0.365,0.188,0.377,0.519,0.029,0.733l-3.654,2.247
		c-0.348,0.215-0.613,0.726-0.586,1.136l0.088,1.004c0.047,0.408,0.371,0.566,0.721,0.351l5.754-3.54
		c0.35-0.215,0.934-0.238,1.299-0.05l1.332,0.687c0.365,0.188,1,0.329,1.41,0.315l3.246-0.117c0.41-0.016,0.516,0.217,0.234,0.516
		l-4.902,5.204c-0.281,0.298-0.828,0.652-1.217,0.785L2.34,33.504c-0.389,0.133-0.578,0.551-0.418,0.93l0.305,0.689
		c0.176,0.371,0.637,0.566,1.025,0.433l4.229-1.448c0.389-0.134,0.65,0.089,0.58,0.492l-1.129,6.522
		c-0.07,0.405,0.111,0.972,0.402,1.261L8.199,43.2c0.307,0.272,0.613,0.165,0.684-0.239l1.695-9.784
		c0.068-0.404,0.355-0.979,0.639-1.277l5.611-5.952c0.281-0.298,0.795-0.361,1.139-0.141l4.779,3.066
		c0.346,0.222,0.629,0.739,0.629,1.149v2.632c0,0.41-0.328,0.67-0.729,0.578l-5.07-1.173c-0.398-0.092-0.877,0.134-1.061,0.5
		l-3.674,7.35c-0.184,0.367-0.033,0.818,0.334,1.001l0.666,0.334c0.367,0.183,0.816,0.033,1-0.334l2.887-5.774
		c0.184-0.366,0.662-0.591,1.062-0.499l3.855,0.892c0.4,0.092,0.729,0.504,0.729,0.914v3.875c0,0.41-0.281,0.929-0.625,1.152
		l-8.066,5.259c-0.344,0.225-0.318,0.545,0.057,0.712l1.127,0.467c0.383,0.146,0.979,0.083,1.322-0.142l6.203-4.044
		c0.344-0.225,0.766-0.103,0.936,0.271l2.217,4.826c0.17,0.373,0.645,0.643,1.053,0.6l0.846-0.108
		c0.404-0.061,0.598-0.417,0.426-0.789l-2.297-5.003c-0.172-0.372,0.023-0.654,0.434-0.627l6.672,0.454
		c0.408,0.028,1.027,0.232,1.371,0.454l2.414,1.549c0.346,0.222,0.908,0.218,1.25-0.011l0.758-0.531
		c0.33-0.243,0.318-0.625-0.027-0.846l-3.67-2.354c-0.346-0.223-0.963-0.427-1.373-0.454l-8.045-0.548
		c-0.41-0.028-0.744-0.388-0.744-0.798v-0.462c0-0.411,0.326-0.827,0.725-0.925l6.998-1.726c0.398-0.099,1.043-0.073,1.434,0.056
		l9.004,2.976c0.391,0.129,0.908-0.035,1.154-0.364l0.488-0.692c0.229-0.341,0.096-0.725-0.293-0.854l-9.047-2.99
		c-0.391-0.129-0.805-0.556-0.92-0.95l-1.389-4.76c-0.115-0.394-0.531-0.616-0.922-0.495l-0.713,0.22
		c-0.391,0.122-0.619,0.544-0.504,0.938l1.152,3.98c0.115,0.395-0.117,0.797-0.516,0.896l-5.928,1.462
		c-0.398,0.098-0.725-0.157-0.725-0.568V29.99c0-0.41,0.281-0.928,0.629-1.149l7.256-4.665c0.344-0.222,0.84-0.144,1.1,0.174
		l5.926,7.251c0.26,0.318,0.807,0.617,1.213,0.665l5.807,0.682c0.406,0.048,0.846-0.232,0.975-0.621l0.229-0.748
		c0.109-0.396-0.133-0.758-0.539-0.805l-5.311-0.623c-0.408-0.048-0.955-0.348-1.215-0.665l-4.387-5.371
		c-0.26-0.317-0.143-0.525,0.264-0.462l11.406,1.792c0.406,0.063,0.746-0.146,0.754-0.465v-0.293c0-0.469-0.008-0.649-0.008-0.649
		c-0.018-0.41-0.363-0.797-0.768-0.861l-6.143-0.965c-0.406-0.063-0.469-0.316-0.141-0.562L47.98,17.667z"/>
	<g>
		<path fill="#003770" d="M72.445,7.985v11.867c0,0.236-0.182,0.418-0.436,0.418h-1c-0.163,0-0.363,0-0.654-0.491l-5.524-9.123
			v9.196c0,0.236-0.2,0.418-0.437,0.418h-1.054c-0.236,0-0.418-0.182-0.418-0.418V7.985c0-0.254,0.182-0.436,0.418-0.436h1.399
			c0.236,0,0.418,0.2,0.49,0.345l5.307,8.814V7.985c0-0.254,0.183-0.436,0.418-0.436h1.055C72.264,7.549,72.445,7.731,72.445,7.985z
			"/>
		<path fill="#003770" d="M78.537,18.78c0.636,0,1.309-0.127,1.781-1.09c0.072-0.091,0.182-0.254,0.436-0.254h1.163
			c0.182,0,0.291,0.127,0.291,0.291c0,0.091-0.036,0.218-0.072,0.309c-0.673,1.763-2.254,2.417-3.599,2.417
			c-2.181,0-3.926-1.581-3.926-4.125v-1.182c0-2.544,1.727-4.144,3.907-4.144c2.163,0,3.871,1.654,3.871,4.089v0.854
			c0,0.236-0.199,0.418-0.436,0.418h-5.397v0.254C76.557,17.926,77.41,18.78,78.537,18.78z M80.481,14.782
			c0-1.327-0.836-2.108-1.963-2.108c-1.126,0-1.962,0.781-1.962,2.108v0.2h3.925V14.782z"/>
		<path fill="#003770" d="M91.861,11.62v8.232c0,0.236-0.182,0.418-0.418,0.418h-1.109c-0.235,0-0.418-0.182-0.418-0.418v-0.563
			c-0.454,0.636-1.126,1.163-2.435,1.163c-2.126,0-3.162-1.581-3.162-4.125V11.62c0-0.254,0.182-0.436,0.418-0.436h1.108
			c0.236,0,0.418,0.182,0.418,0.436v4.925c0,1.454,0.69,2.235,1.799,2.235s1.854-0.781,1.854-2.235V11.62
			c0-0.254,0.183-0.436,0.418-0.436h1.109C91.68,11.184,91.861,11.366,91.861,11.62z"/>
		<path fill="#003770" d="M94.299,19.853V11.62c0-0.254,0.182-0.436,0.418-0.436h0.999c0.236,0,0.437,0.182,0.437,0.436v0.927
			c0.437-0.763,1.235-1.363,2.417-1.363h0.236c0.236,0,0.418,0.182,0.418,0.436v1.09c0,0.236-0.182,0.418-0.418,0.418h-0.272
			c-1.509,0-2.309,0.909-2.309,2.617v4.107c0,0.236-0.182,0.418-0.436,0.418h-1.072C94.48,20.271,94.299,20.089,94.299,19.853z"/>
		<path fill="#003770" d="M104.441,11.002c2.182,0,3.907,1.6,3.907,4.144v1.182c0,2.544-1.726,4.125-3.907,4.125
			c-2.198,0-3.907-1.581-3.907-4.125v-1.182C100.534,12.602,102.243,11.002,104.441,11.002z M104.441,18.78
			c1.127,0,1.945-0.781,1.945-2.235v-1.636c0-1.454-0.818-2.235-1.945-2.235c-1.126,0-1.962,0.781-1.962,2.235v1.636
			C102.479,17.999,103.315,18.78,104.441,18.78z"/>
		<path fill="#003770" d="M110.441,19.853V7.985c0-0.254,0.182-0.436,0.418-0.436h1.108c0.236,0,0.418,0.182,0.418,0.436v11.867
			c0,0.236-0.182,0.418-0.418,0.418h-1.108C110.623,20.271,110.441,20.089,110.441,19.853z"/>
		<path fill="#003770" d="M118.384,11.002c2.182,0,3.907,1.6,3.907,4.144v1.182c0,2.544-1.726,4.125-3.907,4.125
			c-2.198,0-3.907-1.581-3.907-4.125v-1.182C114.477,12.602,116.186,11.002,118.384,11.002z M118.384,18.78
			c1.127,0,1.945-0.781,1.945-2.235v-1.636c0-1.454-0.818-2.235-1.945-2.235c-1.126,0-1.962,0.781-1.962,2.235v1.636
			C116.422,17.999,117.258,18.78,118.384,18.78z"/>
		<path fill="#003770" d="M132.144,21.306c0,1.545-1.127,2.781-3.181,2.781h-2.108c-2.054,0-3.18-1.254-3.18-2.781
			c0-0.981,0.436-1.708,1.218-2.108c-0.563-0.254-0.836-0.763-0.836-1.363c0-0.727,0.381-1.309,1.254-1.49
			c-0.818-0.563-1.182-1.254-1.182-2.235c0-1.908,1.436-3.108,3.489-3.108h0.454c0.618,0,1.309,0.182,1.854,0.582v-1.181
			c0-0.236,0.182-0.436,0.418-0.436h0.909c0.236,0,0.436,0.2,0.436,0.436v3.708c0,1.999-1.417,3.107-3.452,3.107h-1.763
			c-0.437,0-0.745,0.218-0.745,0.654s0.272,0.636,0.89,0.636h2.345C131.017,18.508,132.144,19.744,132.144,21.306z M130.308,21.325
			c0-0.8-0.436-1.345-1.69-1.345h-1.436c-1.254,0-1.672,0.545-1.672,1.345c0,0.781,0.418,1.254,1.672,1.254h1.436
			C129.872,22.579,130.308,22.106,130.308,21.325z M125.965,14.11c0,0.945,0.636,1.581,1.708,1.581h0.473
			c1.072,0,1.708-0.636,1.708-1.581c0-0.909-0.618-1.581-1.708-1.581h-0.473C126.601,12.529,125.965,13.183,125.965,14.11z"/>
		<path fill="#003770" d="M136.017,8.622c0,0.69-0.49,1.181-1.199,1.181c-0.69,0-1.181-0.491-1.181-1.181
			c0-0.691,0.49-1.181,1.181-1.181C135.526,7.44,136.017,7.931,136.017,8.622z M133.854,19.853V11.62
			c0-0.254,0.182-0.436,0.418-0.436h1.108c0.236,0,0.418,0.182,0.418,0.436v8.232c0,0.236-0.182,0.418-0.418,0.418h-1.108
			C134.036,20.271,133.854,20.089,133.854,19.853z"/>
		<path fill="#003770" d="M137.872,17.926c-0.019-0.073-0.037-0.182-0.019-0.254c0-0.182,0.127-0.291,0.309-0.291h1.127
			c0.2,0,0.291,0.109,0.346,0.272c0.127,0.491,0.526,1.218,1.835,1.218c1.036,0,1.69-0.327,1.69-1.145
			c0-1.89-5.161-0.363-5.161-4.071c0-1.872,1.617-2.653,3.435-2.653c2.235,0,3.107,1.363,3.398,2.417
			c0.019,0.054,0.036,0.164,0.036,0.254c-0.018,0.182-0.146,0.309-0.327,0.309h-1.127c-0.218,0-0.272-0.091-0.345-0.291
			c-0.182-0.509-0.491-1.109-1.708-1.109c-0.782,0-1.49,0.236-1.49,0.981c0,1.999,5.143,0.473,5.143,4.107
			c0,2.053-1.672,2.78-3.562,2.78C139.234,20.452,138.071,19.144,137.872,17.926z"/>
		<path fill="#003770" d="M150.486,18.78c0.981,0,1.617-0.527,1.854-1.581c0.037-0.182,0.164-0.272,0.31-0.272h1.254
			c0.163,0,0.291,0.127,0.291,0.309c0,0.073,0,0.2-0.019,0.273c-0.236,1.254-1.418,2.944-3.689,2.944
			c-2.162,0-3.871-1.581-3.871-4.125v-1.182c0-2.544,1.709-4.144,3.854-4.144c1.999,0,3.325,1.327,3.707,2.999
			c0.019,0.109,0.036,0.182,0.036,0.236c0,0.182-0.109,0.291-0.291,0.291h-1.235c-0.2,0-0.291-0.127-0.327-0.272
			c-0.218-0.945-0.817-1.581-1.89-1.581c-1.127,0-1.963,0.781-1.963,2.235v1.636C148.506,17.999,149.359,18.78,150.486,18.78z"/>
		<path fill="#003770" d="M156.232,19.853V7.985c0-0.254,0.182-0.436,0.418-0.436h1.108c0.236,0,0.418,0.182,0.418,0.436v4.234
			c0.49-0.708,1.218-1.218,2.508-1.218c2.235,0,3.308,1.672,3.308,4.144v4.707c0,0.236-0.182,0.418-0.418,0.418h-1.108
			c-0.236,0-0.418-0.182-0.418-0.418v-4.943c0-1.454-0.8-2.235-1.945-2.235c-1.108,0-1.926,0.781-1.926,2.235v4.943
			c0,0.236-0.182,0.418-0.418,0.418h-1.108C156.414,20.271,156.232,20.089,156.232,19.853z"/>
		<path fill="#003770" d="M169.864,18.78c0.636,0,1.309-0.127,1.781-1.09c0.072-0.091,0.182-0.254,0.436-0.254h1.163
			c0.182,0,0.291,0.127,0.291,0.291c0,0.091-0.036,0.218-0.072,0.309c-0.673,1.763-2.254,2.417-3.599,2.417
			c-2.181,0-3.926-1.581-3.926-4.125v-1.182c0-2.544,1.727-4.144,3.907-4.144c2.163,0,3.871,1.654,3.871,4.089v0.854
			c0,0.236-0.199,0.418-0.436,0.418h-5.397v0.254C167.884,17.926,168.737,18.78,169.864,18.78z M171.809,14.782
			c0-1.327-0.836-2.108-1.963-2.108c-1.126,0-1.962,0.781-1.962,2.108v0.2h3.925V14.782z"/>
		<path fill="#003770" d="M72.428,40.533c0,0.163-0.127,0.291-0.291,0.291h-1.454c-0.272,0-0.436-0.164-0.526-0.345l-3.472-5.598
			l-1.817,2.018v3.507c0,0.236-0.182,0.418-0.418,0.418h-1.108c-0.236,0-0.418-0.182-0.418-0.418V28.539
			c0-0.254,0.182-0.436,0.418-0.436h1.108c0.236,0,0.418,0.182,0.418,0.436v5.852l5.216-5.925c0.236-0.272,0.418-0.363,0.618-0.363
			h1.381c0.182,0,0.291,0.127,0.291,0.309c0,0.182-0.164,0.345-0.327,0.545l-3.998,4.416l4.161,6.688
			C72.337,40.26,72.428,40.406,72.428,40.533z"/>
		<path fill="#003770" d="M74.157,40.406V28.539c0-0.254,0.182-0.436,0.418-0.436h1.108c0.236,0,0.418,0.182,0.418,0.436v11.867
			c0,0.236-0.182,0.418-0.418,0.418h-1.108C74.339,40.824,74.157,40.642,74.157,40.406z"/>
		<path fill="#003770" d="M80.846,29.175c0,0.69-0.49,1.181-1.199,1.181c-0.69,0-1.181-0.491-1.181-1.181
			c0-0.691,0.49-1.181,1.181-1.181C80.355,27.994,80.846,28.484,80.846,29.175z M78.684,40.406v-8.232
			c0-0.254,0.182-0.436,0.418-0.436h1.108c0.236,0,0.418,0.182,0.418,0.436v8.232c0,0.236-0.182,0.418-0.418,0.418h-1.108
			C78.865,40.824,78.684,40.642,78.684,40.406z"/>
		<path fill="#003770" d="M83.155,40.406v-8.232c0-0.254,0.182-0.436,0.418-0.436h1.108c0.236,0,0.418,0.182,0.418,0.436v0.6
			c0.49-0.708,1.218-1.218,2.508-1.218c2.235,0,3.308,1.672,3.308,4.144v4.707c0,0.236-0.182,0.418-0.418,0.418h-1.108
			c-0.236,0-0.418-0.182-0.418-0.418v-4.943c0-1.454-0.818-2.235-1.944-2.235c-1.127,0-1.927,0.781-1.927,2.235v4.943
			c0,0.236-0.182,0.418-0.418,0.418h-1.108C83.337,40.824,83.155,40.642,83.155,40.406z"/>
		<path fill="#003770" d="M95.516,29.175c0,0.69-0.49,1.181-1.199,1.181c-0.69,0-1.181-0.491-1.181-1.181
			c0-0.691,0.49-1.181,1.181-1.181C95.025,27.994,95.516,28.484,95.516,29.175z M93.354,40.406v-8.232
			c0-0.254,0.182-0.436,0.418-0.436h1.108c0.236,0,0.418,0.182,0.418,0.436v8.232c0,0.236-0.182,0.418-0.418,0.418h-1.108
			C93.535,40.824,93.354,40.642,93.354,40.406z"/>
		<path fill="#003770" d="M105.749,40.533c0,0.163-0.109,0.291-0.291,0.291h-1.454c-0.236,0-0.382-0.182-0.49-0.345l-2.399-3.471
			l-1.29,1.508v1.89c0,0.236-0.182,0.418-0.418,0.418h-1.108c-0.236,0-0.418-0.182-0.418-0.418V28.539
			c0-0.254,0.182-0.436,0.418-0.436h1.108c0.236,0,0.418,0.182,0.418,0.436v7.597l3.435-4.035c0.236-0.272,0.399-0.363,0.618-0.363
			h1.381c0.182,0,0.291,0.127,0.291,0.309c0,0.146-0.127,0.291-0.346,0.527l-2.689,3.089l2.98,4.343
			C105.604,40.151,105.749,40.388,105.749,40.533z"/>
		<path fill="#003770" d="M117.928,31.355c-0.127-0.872-0.581-1.708-2.271-1.708c-1.436,0-2.398,0.346-2.398,1.708
			c0,3.053,6.888,1.108,6.888,6.015c0,2.69-2.271,3.635-4.489,3.635c-3.38,0-4.67-2.308-4.67-3.907c0-0.236,0.182-0.418,0.418-0.418
			h1.09c0.236,0,0.382,0.2,0.4,0.382c0.054,0.6,0.418,2.217,2.762,2.217c1.581,0,2.545-0.509,2.545-1.908
			c0-2.999-6.888-1.09-6.888-6.015c0-2.235,1.599-3.435,4.379-3.435c3.054,0,4.198,1.854,4.198,3.398c0,0.236-0.2,0.418-0.436,0.418
			h-1.091C118.128,31.737,117.982,31.61,117.928,31.355z"/>
		<path fill="#003770" d="M125.709,31.555c2.182,0,3.907,1.6,3.907,4.144v1.182c0,2.544-1.726,4.125-3.907,4.125
			c-2.198,0-3.907-1.581-3.907-4.125v-1.182C121.802,33.155,123.511,31.555,125.709,31.555z M125.709,39.333
			c1.127,0,1.945-0.781,1.945-2.235v-1.636c0-1.454-0.818-2.235-1.945-2.235c-1.126,0-1.962,0.781-1.962,2.235v1.636
			C123.747,38.552,124.583,39.333,125.709,39.333z"/>
		<path fill="#003770" d="M131.654,40.406v-8.232c0-0.254,0.182-0.436,0.418-0.436h0.999c0.236,0,0.437,0.182,0.437,0.436V33.1
			c0.437-0.763,1.235-1.363,2.417-1.363h0.236c0.236,0,0.418,0.182,0.418,0.436v1.09c0,0.236-0.182,0.418-0.418,0.418h-0.272
			c-1.509,0-2.309,0.909-2.309,2.617v4.107c0,0.236-0.182,0.418-0.436,0.418h-1.072C131.836,40.824,131.654,40.642,131.654,40.406z"
			/>
		<path fill="#003770" d="M139.635,44.458h-1.108c-0.236,0-0.418-0.182-0.418-0.418V32.173c0-0.254,0.182-0.436,0.418-0.436h1.108
			c0.236,0,0.418,0.182,0.418,0.436v0.582c0.527-0.727,1.29-1.2,2.544-1.2c2.036,0,3.326,1.436,3.326,4.144v1.09
			c0,2.763-1.345,4.216-3.326,4.216c-1.181,0-1.999-0.418-2.544-1.199v4.234C140.053,44.277,139.871,44.458,139.635,44.458z
			 M142.016,39.333c1.309,0,1.963-0.945,1.963-2.235v-1.617c0-1.291-0.654-2.253-1.963-2.253c-1.272,0-1.963,0.945-1.963,2.199
			v1.672C140.053,38.389,140.726,39.333,142.016,39.333z"/>
		<path fill="#003770" d="M151.486,39.333c0.636,0,1.309-0.127,1.781-1.09c0.072-0.091,0.182-0.254,0.436-0.254h1.163
			c0.182,0,0.291,0.127,0.291,0.291c0,0.091-0.036,0.218-0.072,0.309c-0.673,1.763-2.254,2.417-3.599,2.417
			c-2.181,0-3.926-1.581-3.926-4.125v-1.182c0-2.544,1.727-4.144,3.907-4.144c2.163,0,3.871,1.654,3.871,4.089v0.854
			c0,0.236-0.199,0.418-0.436,0.418h-5.397v0.254C149.506,38.479,150.359,39.333,151.486,39.333z M153.431,35.335
			c0-1.327-0.836-2.108-1.963-2.108c-1.126,0-1.962,0.781-1.962,2.108v0.2h3.925V35.335z"/>
		<path fill="#003770" d="M156.905,38.479c-0.019-0.073-0.037-0.182-0.019-0.254c0-0.182,0.127-0.291,0.309-0.291h1.127
			c0.2,0,0.291,0.109,0.346,0.273c0.127,0.49,0.526,1.217,1.835,1.217c1.036,0,1.69-0.327,1.69-1.145
			c0-1.89-5.161-0.363-5.161-4.071c0-1.872,1.617-2.653,3.435-2.653c2.235,0,3.107,1.363,3.398,2.417
			c0.019,0.054,0.036,0.163,0.036,0.254c-0.018,0.182-0.146,0.309-0.327,0.309h-1.127c-0.218,0-0.272-0.091-0.345-0.291
			c-0.182-0.509-0.491-1.109-1.708-1.109c-0.782,0-1.49,0.236-1.49,0.981c0,1.999,5.143,0.473,5.143,4.107
			c0,2.053-1.672,2.78-3.562,2.78C158.268,41.005,157.104,39.697,156.905,38.479z"/>
		<path fill="#003770" d="M169.574,39.333c0.636,0,1.309-0.127,1.781-1.09c0.072-0.091,0.182-0.254,0.436-0.254h1.163
			c0.182,0,0.291,0.127,0.291,0.291c0,0.091-0.036,0.218-0.072,0.309c-0.673,1.763-2.254,2.417-3.599,2.417
			c-2.181,0-3.926-1.581-3.926-4.125v-1.182c0-2.544,1.727-4.144,3.907-4.144c2.163,0,3.871,1.654,3.871,4.089v0.854
			c0,0.236-0.199,0.418-0.436,0.418h-5.397v0.254C167.594,38.479,168.447,39.333,169.574,39.333z M171.519,35.335
			c0-1.327-0.836-2.108-1.963-2.108c-1.126,0-1.962,0.781-1.962,2.108v0.2h3.925V35.335z"/>
		<path fill="#003770" d="M178.973,39.333c0.636,0,1.309-0.127,1.781-1.09c0.072-0.091,0.182-0.254,0.436-0.254h1.163
			c0.182,0,0.291,0.127,0.291,0.291c0,0.091-0.036,0.218-0.072,0.309c-0.673,1.763-2.254,2.417-3.599,2.417
			c-2.181,0-3.926-1.581-3.926-4.125v-1.182c0-2.544,1.727-4.144,3.907-4.144c2.163,0,3.871,1.654,3.871,4.089v0.854
			c0,0.236-0.199,0.418-0.436,0.418h-5.397v0.254C176.992,38.479,177.846,39.333,178.973,39.333z M180.917,35.335
			c0-1.327-0.836-2.108-1.963-2.108c-1.126,0-1.962,0.781-1.962,2.108v0.2h3.925V35.335z"/>
	</g>
</g>
</svg>
